<svg width="793" height="834" fill="none" xmlns="http://www.w3.org/2000/svg"><path d="M690.801 160.207a390.334 390.334 0 0 0-353.302-128.92l59.398 385.786 293.904-256.866ZM22.457 306.822a390.334 390.334 0 0 0 80.717 367.325l293.722-257.074L22.457 306.822Z" fill="#DDAD22"/><path d="M337.507 31.285A390.332 390.332 0 0 0 22.12 307.975l374.776 109.099-59.389-385.789Z" fill="#F7CE4E"/><path d="M103.133 674.102a390.342 390.342 0 0 0 353.373 128.727l-59.61-385.755-293.763 257.028ZM771.396 527.118a390.331 390.331 0 0 0-80.918-367.28L396.896 417.073l374.5 110.045Z" fill="#C78913"/><path d="M456.498 802.83a390.336 390.336 0 0 0 315.235-276.863L396.896 417.074l59.602 385.756Z" fill="#F7CE4E"/><path d="M672.346 176.337a365.82 365.82 0 0 0-516.186-34.712 365.822 365.822 0 0 0-34.712 516.186l550.898-481.474Z" fill="#C78913"/><path d="M121.448 657.811a365.822 365.822 0 0 0 250.904 124.261 365.822 365.822 0 0 0 299.994-605.735L121.448 657.811Z" fill="#DDAD22"/><path d="M667.705 213.609a338.723 338.723 0 0 0-474.272-67.344 338.725 338.725 0 0 0-67.344 474.272l541.616-406.928Z" fill="#DFB42D"/><path d="M126.089 620.538a338.725 338.725 0 1 0 541.616-406.929L126.089 620.538Z" fill="#F7CE4E"/><g filter="url('#filter0_i_2003_3109')"><path d="M594.785 151.912c-32.992-26.696-56.2-36.541-66.851-40-3.793-1.232-7.61.888-9.061 4.602l-92.725 237.328a8.475 8.475 0 0 0-.457 1.64l-2.481 14.288c-1.179 6.793 5.794 12.09 12.022 9.132l8.445-4.011a8.528 8.528 0 0 0 1.545-.948l206.143-159.034c2.482-1.915 3.512-5.006 1.911-7.701-4.414-7.43-17.869-24.463-58.491-55.296Z" fill="url('#paint0_linear_2003_3109')"/></g><g filter="url('#filter1_i_2003_3109')"><path d="M197.5 151.499c33.927-24.833 56.739-35.059 67.385-38.962 3.926-1.439 8.021.682 9.543 4.578l92.566 236.923c.207.529.361 1.079.458 1.639l2.815 16.217c1.109 6.389-5.056 11.617-11.178 9.479l-9.91-3.462a8.504 8.504 0 0 1-2.19-1.145L137.875 224.989c-3.797-2.756-4.622-8.05-1.718-11.736 9.937-12.61 33.256-40.408 61.343-61.754Z" fill="url('#paint1_linear_2003_3109')"/></g><g filter="url('#filter2_i_2003_3109')"><path d="M713.001 519.5c13.814-40.378 15.391-65.031 15.137-75.975-.092-3.943-3.304-6.808-7.244-6.979l-254.656-11.042a8.4 8.4 0 0 0-1.699.097l-14.324 2.271c-6.809 1.08-9.568 9.39-4.756 14.328l6.532 6.701c.419.43.882.814 1.382 1.147l215.5 143.209c2.551 1.695 5.768 1.754 7.905-.44 6.2-6.364 19.529-24.519 36.223-73.317Z" fill="url('#paint2_linear_2003_3109')"/></g><g filter="url('#filter3_i_2003_3109')"><path d="M407.481 748.78c43.925-.167 71.918-8.746 83.861-13.381 3.908-1.517 5.645-5.822 4.271-9.783l-83.112-239.617-6.874-16.926c-2.41-5.933-10.266-7.172-14.385-2.268l-9.249 11.012a8.52 8.52 0 0 0-1.506 2.637l-86.212 244.187c-1.541 4.365.711 9.105 5.15 10.415 15.717 4.634 54.041 13.931 108.056 13.724Z" fill="url('#paint3_linear_2003_3109')"/></g><g filter="url('#filter4_i_2003_3109')"><path d="M85.317 530.327c14.08 38.891 30.927 63.966 39.06 74.74 2.657 3.52 7.572 4.026 11.095 1.373L338.5 453.499l11.536-11.323c4.765-4.677 2.525-12.77-3.967-14.33l-8.728-2.099a8.537 8.537 0 0 0-2.088-.235l-261.882 3.116c-4.733.057-8.468 3.957-8.101 8.677 1.253 16.136 5.561 53.013 20.047 93.022Z" fill="url('#paint4_linear_2003_3109')"/></g><g filter="url('#filter5_i_2003_3109')"><path d="M397.394 84c-44.798 0-80.944 9.602-96.138 14.373-4.364 1.37-6.583 6.052-5.101 10.379l77.916 227.497a8.53 8.53 0 0 0 1.217 2.312l15.519 20.906c3.326 4.481 9.995 4.596 13.473.231l8.85-11.107a8.514 8.514 0 0 0 1.345-2.404l85.268-235.572c1.544-4.264-.53-8.944-4.816-10.424-15.314-5.287-52.376-16.192-97.533-16.192Z" fill="#4C5485"/><path d="M397.394 84c-44.798 0-80.944 9.602-96.138 14.373-4.364 1.37-6.583 6.052-5.101 10.379l77.916 227.497a8.53 8.53 0 0 0 1.217 2.312l15.519 20.906c3.326 4.481 9.995 4.596 13.473.231l8.85-11.107a8.514 8.514 0 0 0 1.345-2.404l85.268-235.572c1.544-4.264-.53-8.944-4.816-10.424-15.314-5.287-52.376-16.192-97.533-16.192Z" fill="#6773B3"/></g><g filter="url('#filter6_i_2003_3109')"><path d="M712.032 313.49c-13.718-41.593-31.049-68.489-39.277-79.83-2.593-3.574-7.501-4.17-11.076-1.579L465.397 374.35a8.502 8.502 0 0 0-1.596 1.506l-14.272 17.48c-3.689 4.519-1.835 11.326 3.636 13.349l12.359 4.57a8.512 8.512 0 0 0 3.039.527l251.193-2.7c4.389-.047 7.966-3.411 7.953-7.8-.039-14.016-1.926-46.103-15.677-87.792Z" fill="#4C5485"/><path d="M712.032 313.49c-13.718-41.593-31.049-68.489-39.277-79.83-2.593-3.574-7.501-4.17-11.076-1.579L465.397 374.35a8.502 8.502 0 0 0-1.596 1.506l-14.272 17.48c-3.689 4.519-1.835 11.326 3.636 13.349l12.359 4.57a8.512 8.512 0 0 0 3.039.527l251.193-2.7c4.389-.047 7.966-3.411 7.953-7.8-.039-14.016-1.926-46.103-15.677-87.792Z" fill="#6773B3"/></g><g filter="url('#filter7_i_2003_3109')"><path d="M83.51 305.279c-14.705 42.27-17.48 78.974-17.951 94.64-.136 4.527 3.496 8.138 8.025 8.211l237.455 3.846a8.517 8.517 0 0 0 2.846-.442l25.891-8.703c5.803-1.95 7.703-9.21 3.601-13.753l-1.149-1.273a8.519 8.519 0 0 0-1.634-1.403L123.583 243.504c-3.501-2.305-8.073-1.655-10.439 1.804-5.708 8.347-16.546 26.543-29.635 59.971Z" fill="#4C5485"/><path d="M83.51 305.279c-14.705 42.27-17.48 78.974-17.951 94.64-.136 4.527 3.496 8.138 8.025 8.211l237.455 3.846a8.517 8.517 0 0 0 2.846-.442l25.891-8.703c5.803-1.95 7.703-9.21 3.601-13.753l-1.149-1.273a8.519 8.519 0 0 0-1.634-1.403L123.583 243.504c-3.501-2.305-8.073-1.655-10.439 1.804-5.708 8.347-16.546 26.543-29.635 59.971Z" fill="#6773B3"/></g><g filter="url('#filter8_i_2003_3109')"><path d="M584.684 691.433c36.529-25.414 58.849-52.28 67.816-64.266 2.663-3.56 1.802-8.486-1.752-11.157L460.893 473.352a8.543 8.543 0 0 0-2.029-1.128l-21.77-8.454c-6.046-2.347-12.157 3.264-10.333 9.487l88.756 244.404c1.43 3.936 5.482 6.148 9.442 4.784 9.637-3.32 29.372-11.581 59.725-31.012Z" fill="#4C5485"/><path d="M584.684 691.433c36.529-25.414 58.849-52.28 67.816-64.266 2.663-3.56 1.802-8.486-1.752-11.157L460.893 473.352a8.543 8.543 0 0 0-2.029-1.128l-21.77-8.454c-6.046-2.347-12.157 3.264-10.333 9.487l88.756 244.404c1.43 3.936 5.482 6.148 9.442 4.784 9.637-3.32 29.372-11.581 59.725-31.012Z" fill="#6773B3"/></g><g filter="url('#filter9_i_2003_3109')"><path d="M192.23 679.77c34.447 26.373 60.743 36.461 72.505 40 3.895 1.171 7.807-1.015 9.251-4.818l84.712-223.155a8.45 8.45 0 0 0 .44-1.638l3.369-20.495c.973-5.919-5.606-10.131-10.575-6.77L145.785 621.061c-3.328 2.554-4.217 7.099-1.728 10.476 6.158 8.358 20.231 25.085 48.173 48.233Z" fill="#4C5485"/><path d="M192.23 679.77c34.447 26.373 60.743 36.461 72.505 40 3.895 1.171 7.807-1.015 9.251-4.818l84.712-223.155a8.45 8.45 0 0 0 .44-1.638l3.369-20.495c.973-5.919-5.606-10.131-10.575-6.77L145.785 621.061c-3.328 2.554-4.217 7.099-1.728 10.476 6.158 8.358 20.231 25.085 48.173 48.233Z" fill="#6773B3"/></g><path d="M282.874 102.864 509.522 735.41M122.132 224.82l548.131 388.634M512.995 104.131 279.399 734.144M664.252 216.609 128.143 621.666M732.16 419.137H60.235" stroke="#FFF27C" stroke-width="6.8" stroke-dasharray="23.8 23.8"/><path d="m502.42 282.335 6.301 2.288-2.729-6.127 2.515-2.703 3.557 9.553 3.739 3.479-2.375 2.552-3.739-3.479-9.79-2.854 2.521-2.709Zm11.415-12.269 2.335-2.509 6.799 6.326c.811.754 1.339 1.562 1.587 2.424a4.405 4.405 0 0 1-.058 2.6c-.282.876-.806 1.726-1.574 2.551-.758.815-1.568 1.399-2.431 1.753a4.518 4.518 0 0 1-2.609.267c-.882-.181-1.728-.648-2.538-1.402l-6.799-6.326 2.341-2.516 6.799 6.326c.429.399.837.663 1.224.792.383.124.746.125 1.092.002.346-.123.676-.354.991-.692.319-.343.526-.689.619-1.038a1.62 1.62 0 0 0-.094-1.075c-.161-.372-.456-.757-.885-1.156l-6.799-6.327Zm8.495-9.13 10.41 9.686-2.335 2.51-10.41-9.686 2.335-2.51Zm2.914-3.131 1.937 1.803-8.095 8.701-1.938-1.803 8.096-8.701Zm6.246-6.713 2.335-2.51 6.799 6.327c.811.753 1.34 1.561 1.587 2.423a4.397 4.397 0 0 1-.058 2.6c-.282.876-.806 1.727-1.574 2.551-.758.815-1.568 1.4-2.431 1.753a4.51 4.51 0 0 1-2.609.267c-.882-.18-1.728-.647-2.538-1.401l-6.799-6.326 2.341-2.517 6.8 6.326c.429.399.836.663 1.223.792.383.125.747.125 1.092.002.346-.123.676-.353.991-.692.319-.343.526-.689.619-1.038a1.61 1.61 0 0 0-.094-1.074c-.161-.372-.456-.758-.884-1.157l-6.8-6.326Zm17.901-1.806 5.003-.761-.135 2.783-4.956.711.088-2.733Zm-.882-6.463.421.392c.796.741 1.407 1.518 1.833 2.332.425.804.671 1.62.737 2.447a5.66 5.66 0 0 1-.315 2.388c-.28.77-.731 1.489-1.352 2.156-.626.672-1.314 1.179-2.067 1.519a5.779 5.779 0 0 1-2.366.493c-.825-.012-1.656-.198-2.494-.56-.838-.37-1.655-.926-2.451-1.667l-.421-.392c-.796-.741-1.409-1.515-1.839-2.325-.426-.813-.674-1.627-.745-2.44a5.502 5.502 0 0 1 .315-2.388c.281-.779.734-1.505 1.359-2.177.621-.667 1.308-1.167 2.06-1.498a5.501 5.501 0 0 1 2.366-.493c.825.003 1.659.187 2.501.553.842.366 1.662.919 2.458 1.66Zm-1.954 2.944-.436-.405c-.514-.479-1.009-.855-1.484-1.128-.476-.283-.927-.462-1.353-.539a2.323 2.323 0 0 0-1.193.077c-.369.12-.702.339-.999.658-.31.334-.512.689-.604 1.065-.097.372-.09.766.022 1.181.111.415.325.85.641 1.304.315.445.73.906 1.245 1.385l.436.406c.51.475 1.001.855 1.472 1.142.47.278.919.46 1.346.546.431.081.831.062 1.2-.057.374-.124.715-.353 1.026-.686a2.35 2.35 0 0 0 .584-1.044c.093-.376.08-.774-.036-1.194-.112-.424-.324-.861-.635-1.311a8.389 8.389 0 0 0-1.232-1.4Zm10.779-7.125a1.7 1.7 0 0 0-.503-.334 1.245 1.245 0 0 0-.618-.082c-.234.023-.521.102-.862.239a9.713 9.713 0 0 0-1.25.598c-.578.315-1.16.596-1.745.843a7.986 7.986 0 0 1-1.737.505c-.573.09-1.124.07-1.654-.058-.534-.133-1.035-.416-1.502-.851a3.322 3.322 0 0 1-.929-1.424 3.763 3.763 0 0 1-.144-1.695c.08-.602.279-1.208.598-1.818a7.934 7.934 0 0 1 1.276-1.787c.71-.763 1.468-1.311 2.276-1.644.808-.342 1.608-.452 2.4-.328.792.114 1.517.477 2.175 1.089l-2.322 2.495a1.94 1.94 0 0 0-.847-.481 1.528 1.528 0 0 0-.917.04c-.314.108-.622.325-.923.649-.293.314-.492.623-.596.926a1.525 1.525 0 0 0-.066.846c.055.256.178.472.369.65.157.146.34.236.548.27.209.025.443.007.703-.053.265-.065.556-.167.874-.308.322-.145.668-.321 1.038-.528a13.386 13.386 0 0 1 1.964-.92 6.168 6.168 0 0 1 1.754-.409 3.708 3.708 0 0 1 1.561.186c.495.166.961.453 1.399.861.468.435.798.911.992 1.429.193.519.259 1.064.197 1.638-.067.569-.256 1.149-.566 1.741a8.223 8.223 0 0 1-1.277 1.759 8.632 8.632 0 0 1-1.671 1.394 6.383 6.383 0 0 1-1.933.816 4.456 4.456 0 0 1-2.032-.01c-.678-.169-1.325-.539-1.94-1.111l2.342-2.517c.305.284.6.483.885.597.285.114.565.152.84.115.271-.042.541-.151.811-.326.265-.18.535-.418.81-.714.297-.319.492-.619.583-.898.086-.284.095-.543.027-.775a1.383 1.383 0 0 0-.388-.615Zm-1.623-13.581 10.41 9.685-2.328 2.503-10.41-9.686 2.328-2.502Zm17.374-1.67 1.93 1.796-7.011 7.536-1.931-1.796 7.012-7.536Zm-7.239-6.642 3.315 14.73-1.69 1.816-1.322-1.231-3.213-14.768 1.623-1.744 1.287 1.197Zm-2.039-.389 1.938 1.802-6.779 7.286-1.938-1.803 6.779-7.285Z" fill="#C6CFFF"/><path d="m294.76 549.621-6.316-2.247 2.769 6.11-2.496 2.719-3.62-9.529-3.762-3.455 2.358-2.568 3.762 3.455 9.809 2.789-2.504 2.726Zm-11.334 12.343-2.319 2.525-6.84-6.282c-.815-.748-1.35-1.553-1.603-2.413a4.403 4.403 0 0 1 .042-2.6c.276-.878.794-1.732 1.556-2.562.753-.82 1.56-1.409 2.42-1.768a4.508 4.508 0 0 1 2.607-.284c.883.174 1.732.636 2.548 1.384l6.84 6.282-2.325 2.532-6.841-6.282c-.431-.396-.841-.657-1.229-.784a1.65 1.65 0 0 0-1.091.005c-.345.125-.674.358-.987.699-.317.345-.521.692-.612 1.042a1.62 1.62 0 0 0 .101 1.074c.163.371.461.754.892 1.151l6.841 6.281Zm-8.435 9.186-10.473-9.618 2.318-2.524 10.473 9.617-2.318 2.525Zm-2.893 3.15-1.95-1.79 8.039-8.754 1.949 1.79-8.038 8.754Zm-6.203 6.754-2.318 2.525-6.841-6.282c-.815-.748-1.349-1.553-1.602-2.413a4.395 4.395 0 0 1 .041-2.6c.276-.878.795-1.732 1.557-2.562.753-.82 1.559-1.409 2.42-1.768a4.506 4.506 0 0 1 2.607-.284c.883.174 1.732.636 2.547 1.384l6.84 6.282-2.325 2.532-6.84-6.282c-.432-.396-.841-.658-1.229-.784a1.654 1.654 0 0 0-1.092.005c-.345.125-.674.358-.986.699-.317.345-.521.692-.612 1.042-.091.349-.058.707.101 1.074.163.371.46.754.892 1.15l6.84 6.282Zm-17.888 1.923-4.998.793.117-2.783 4.951-.743-.07 2.733Zm.925 6.458-.425-.39c-.801-.736-1.416-1.509-1.847-2.32-.431-.802-.682-1.616-.754-2.442a5.679 5.679 0 0 1 .299-2.39c.276-.772.722-1.494 1.339-2.165.621-.677 1.306-1.187 2.056-1.533a5.776 5.776 0 0 1 2.363-.508c.825.006 1.658.188 2.498.543.84.365 1.661.916 2.461 1.651l.425.39c.801.735 1.419 1.506 1.854 2.312.431.811.684 1.623.76 2.435a5.496 5.496 0 0 1-.299 2.391c-.275.781-.724 1.51-1.344 2.186-.617.671-1.3 1.175-2.051 1.511a5.478 5.478 0 0 1-2.363.508c-.825.003-1.659-.176-2.504-.536-.845-.36-1.668-.908-2.468-1.643Zm1.933-2.958.439.403c.518.475 1.015.848 1.492 1.118.478.279.93.456 1.357.53.427.074.824.046 1.192-.085.368-.122.699-.343.994-.665.309-.335.508-.692.598-1.069a2.271 2.271 0 0 0-.03-1.18c-.114-.415-.331-.848-.65-1.3a9.188 9.188 0 0 0-1.254-1.377l-.439-.403a9.313 9.313 0 0 0-1.479-1.133c-.472-.275-.922-.453-1.349-.537a2.417 2.417 0 0 0-1.2.065c-.373.127-.713.358-1.021.693a2.353 2.353 0 0 0-.578 1.048c-.09.377-.075.775.044 1.194.115.423.329.859.643 1.306a8.37 8.37 0 0 0 1.241 1.392Zm-10.731 7.196c.163.149.331.26.505.331.178.075.384.101.618.077.234-.024.521-.105.861-.244a9.98 9.98 0 0 0 1.246-.606 19.418 19.418 0 0 1 1.74-.855 8.042 8.042 0 0 1 1.733-.516 4.187 4.187 0 0 1 1.654.047c.535.129 1.038.41 1.508.841.451.414.763.887.938 1.419.18.536.231 1.1.155 1.693a5.476 5.476 0 0 1-.586 1.822 7.946 7.946 0 0 1-1.264 1.796c-.705.767-1.46 1.32-2.266 1.658-.805.348-1.604.462-2.397.344-.793-.109-1.52-.467-2.182-1.075l2.306-2.51c.263.242.547.4.849.475.299.079.604.064.918-.046.313-.11.619-.328.919-.654.29-.317.487-.627.589-.931a1.53 1.53 0 0 0 .061-.846 1.224 1.224 0 0 0-.373-.647 1.042 1.042 0 0 0-.551-.267 2.063 2.063 0 0 0-.702.058 5.293 5.293 0 0 0-.872.313c-.321.147-.666.326-1.035.535a13.33 13.33 0 0 1-1.957.933 6.165 6.165 0 0 1-1.752.421 3.714 3.714 0 0 1-1.562-.176c-.496-.163-.964-.447-1.405-.852-.47-.432-.804-.906-1.001-1.423a3.533 3.533 0 0 1-.208-1.636c.064-.57.249-1.151.555-1.745a8.21 8.21 0 0 1 1.266-1.768 8.627 8.627 0 0 1 1.661-1.404 6.362 6.362 0 0 1 1.927-.829 4.442 4.442 0 0 1 2.032-.003c.68.164 1.329.53 1.948 1.098l-2.325 2.532c-.307-.281-.604-.478-.889-.591a1.644 1.644 0 0 0-.841-.109 2.07 2.07 0 0 0-.809.332 4.812 4.812 0 0 0-.805.718c-.295.321-.488.622-.577.902-.085.285-.092.544-.022.776.074.236.205.44.392.612Zm1.711 13.57-10.472-9.617 2.311-2.517 10.473 9.617-2.312 2.517Zm-17.362 1.783-1.942-1.783 6.962-7.581 1.942 1.783-6.962 7.581Zm7.283 6.595-3.412-14.708 1.678-1.827 1.33 1.222 3.31 14.747-1.612 1.755-1.294-1.189Zm2.041.376-1.95-1.79 6.731-7.329 1.95 1.79-6.731 7.329ZM294.377 600.722l-8.717-2.109 3.652 8.191-4.257 5.111-4.905-12.871-13.816-2.482 4.299-5.163 8.906 2.116-3.692-8.377 4.31-5.175 4.931 13.152 13.556 2.483-4.267 5.124Z" fill="#fff"/><path d="m533.094 231.443-8.644-2.391 3.384 8.306-4.42 4.97-4.485-13.023-13.728-2.93 4.464-5.02 8.833 2.404-3.418-8.492 4.475-5.033 4.502 13.305 13.469 2.922-4.432 4.982Z" fill="#C6CFFF"/><path fill-rule="evenodd" clip-rule="evenodd" d="M162.234 365.203a10.305 10.305 0 0 0-3.97-.135 10.177 10.177 0 0 0-4.329 1.789l-1.863-3.888a14.573 14.573 0 0 1 11.112-1.885 14.566 14.566 0 0 1 9.045 6.365c1.976 3.1 2.755 6.929 1.875 10.758l3.326.767-3.569 2.833-3.568 2.833-1.969-4.109-1.969-4.11 3.558.82a9.93 9.93 0 0 0-1.32-7.565 10.277 10.277 0 0 0-6.359-4.473Zm-12.554.067-3.569 2.833-3.569 2.834 3.327.767v.002c-.883 3.832-.102 7.665 1.873 10.765a14.57 14.57 0 0 0 9.045 6.365 14.572 14.572 0 0 0 11.114-1.886l-1.863-3.888a10.25 10.25 0 0 1-6.322 1.914 10.349 10.349 0 0 1-5.606-1.878 10.15 10.15 0 0 1-3.626-4.62 9.888 9.888 0 0 1-.423-5.806l.001-.002 3.555.819-1.969-4.109-1.968-4.11Z" fill="#fff"/><path fill-rule="evenodd" clip-rule="evenodd" d="M637.17 455.671a10.294 10.294 0 0 0-3.901-.75 10.179 10.179 0 0 0-4.554 1.097l-1.238-4.13a14.569 14.569 0 0 1 11.27-.14 14.568 14.568 0 0 1 7.949 7.69c1.472 3.369 1.649 7.272.185 10.919l3.168 1.273-3.966 2.246-3.964 2.246-1.308-4.365-1.308-4.366 3.387 1.362a9.927 9.927 0 0 0-.131-7.679 10.274 10.274 0 0 0-5.589-5.403Zm-12.412-1.88-3.966 2.245-3.965 2.246 3.169 1.274-.001.002c-1.466 3.648-1.289 7.556.182 10.925a14.568 14.568 0 0 0 7.949 7.69 14.569 14.569 0 0 0 11.06-.05c.071-.029.142-.06.212-.09l-1.238-4.13a10.244 10.244 0 0 1-6.542.911 10.354 10.354 0 0 1-5.247-2.724 10.143 10.143 0 0 1-2.866-5.127 9.882 9.882 0 0 1 .482-5.801l.001-.002 3.386 1.361-1.309-4.365-1.307-4.365Z" fill="#C6CFFF"/><path d="m210.498 370.742.047-6.703-4.86 4.622-3.389-1.465 7.811-6.549 2.027-4.688 3.2 1.383-2.027 4.688.588 10.181-3.397-1.469Zm-12.161-8.513 7.639-8.933 3.379 1.461-10.438 10.978-2.142-.926 1.562-2.58Zm1.822-11.448-1.266 11.688-.774 2.921-2.169-.938.821-15.136 3.388 1.465Zm-1.979 4.922 1.05-2.43 6.696 2.895-1.05 2.43-6.696-2.895Zm-18.911 1.537 5.643-13.051 3.137 1.356 1.105 10.117 3.511-8.121 3.146 1.36-5.643 13.051-3.146-1.36-1.105-10.117-3.511 8.121-3.137-1.356Zm-6.496-6.065 7.639-8.932 3.379 1.461-10.438 10.978-2.143-.927 1.563-2.58Zm1.822-11.447-1.266 11.688-.774 2.921-2.169-.938.82-15.136 3.389 1.465Zm-1.979 4.921 1.05-2.429 6.696 2.895-1.051 2.429-6.695-2.895Zm-14.664-5.531 3.362 1.453-.874 2.069-2.725-1.178c-.49-.212-.904-.327-1.244-.346-.342-.013-.625.059-.849.218-.231.155-.416.395-.555.717-.161.371-.221.699-.182.986.04.286.187.545.441.776.247.234.603.452 1.069.653l1.542.667 4.592-10.622 3.147 1.36-5.643 13.051-4.688-2.027c-.807-.348-1.495-.734-2.064-1.158-.571-.417-1.013-.871-1.326-1.361a3.248 3.248 0 0 1-.534-1.571c-.039-.549.073-1.128.337-1.738.23-.531.559-.981.987-1.349.429-.368.973-.584 1.631-.646.65-.06 1.435.102 2.354.485l1.222-.439Zm2.525-5.495 3.998 1.729-2.123 1.955-2.922-1.263c-.43-.186-.802-.269-1.116-.249-.322.024-.588.122-.797.294-.218.175-.386.4-.505.675a2.224 2.224 0 0 0-.205.943c.001.292.093.555.275.79.18.241.47.448.87.621l2.645 1.143-.91 2.054-3.164-1.368-.378-1.143c-.888-.341-1.526-.762-1.912-1.262-.393-.503-.6-1.033-.622-1.589a3.59 3.59 0 0 1 .292-1.586c.37-.855.864-1.489 1.482-1.902.613-.416 1.346-.61 2.199-.582.853.029 1.817.275 2.893.74Zm-15.638 8.73 5.643-13.051 3.138 1.357-5.643 13.051-3.138-1.357Zm-2.214-.957-5.136-2.221c-1.004-.434-1.812-.961-2.423-1.58-.612-.619-.992-1.308-1.139-2.067-.153-.761-.044-1.572.329-2.432.322-.747.709-1.321 1.159-1.723.45-.401.955-.675 1.516-.823a6.014 6.014 0 0 1 1.788-.174l1.283-.137 4.311 1.864-1.032 2.437-3.191-1.379c-.401-.174-.763-.245-1.088-.216-.325.03-.61.148-.855.354-.254.21-.461.5-.621.87-.163.377-.234.729-.213 1.057.022.329.136.623.342.882.201.258.496.47.884.638l1.99.86 4.593-10.622 3.146 1.361-5.643 13.051Zm-1.501-16.14.391 7.02-3.343-1.423-.476-6.92.058-.134 3.37 1.457Zm124.28 38.532 3.361 1.453-.873 2.069-2.725-1.178c-.49-.212-.905-.327-1.244-.346-.342-.013-.625.059-.85.218-.23.155-.415.395-.555.717-.16.371-.22.699-.181.986.039.286.186.545.441.776.246.234.603.452 1.069.653l1.541.667 4.593-10.622 3.146 1.36-5.643 13.051-4.688-2.027c-.806-.348-1.494-.734-2.063-1.158-.571-.417-1.014-.871-1.327-1.361a3.246 3.246 0 0 1-.533-1.571c-.039-.549.073-1.128.336-1.738.23-.531.56-.981.988-1.349.429-.368.972-.584 1.631-.646.65-.06 1.434.102 2.354.485l1.222-.439Zm2.524-5.495 3.998 1.729-2.122 1.955-2.922-1.263c-.43-.186-.802-.269-1.116-.249-.322.024-.588.122-.797.294-.218.175-.386.4-.505.675a2.242 2.242 0 0 0-.206.943c.002.292.094.555.276.79.18.241.47.448.87.621l2.644 1.143-.909 2.054-3.164-1.368-.379-1.143c-.888-.341-1.525-.762-1.911-1.262-.393-.504-.6-1.033-.622-1.589a3.575 3.575 0 0 1 .292-1.586c.369-.855.863-1.489 1.482-1.902.612-.416 1.345-.61 2.198-.582.853.029 1.818.275 2.893.74Zm-20.628-.865.229-.528c.431-.998.959-1.834 1.584-2.507.616-.67 1.299-1.176 2.05-1.518a5.656 5.656 0 0 1 2.356-.503c.82.007 1.648.191 2.485.553.842.364 1.55.844 2.122 1.439a5.776 5.776 0 0 1 1.257 2.064c.265.782.367 1.628.307 2.538-.069.913-.319 1.869-.75 2.867l-.229.529c-.431.998-.956 1.835-1.575 2.511-.625.673-1.308 1.179-2.05 1.518a5.505 5.505 0 0 1-2.356.503c-.828-.004-1.664-.188-2.506-.552-.837-.362-1.537-.842-2.101-1.44a5.482 5.482 0 0 1-1.257-2.065c-.267-.775-.37-1.621-.307-2.537.063-.917.31-1.874.741-2.872Zm3.42.851-.236.547c-.279.645-.468 1.238-.566 1.777-.107.542-.126 1.027-.055 1.455.07.428.228.794.472 1.098.236.308.554.548.954.721.419.181.821.252 1.206.213a2.278 2.278 0 0 0 1.106-.416c.354-.244.691-.591 1.013-1.04.314-.446.61-.992.889-1.638l.237-.546c.276-.64.471-1.229.584-1.769.104-.537.125-1.021.063-1.452a2.408 2.408 0 0 0-.455-1.112c-.242-.31-.572-.555-.99-.736a2.36 2.36 0 0 0-1.179-.202 2.337 2.337 0 0 0-1.114.434c-.362.248-.703.593-1.022 1.037-.328.447-.631.99-.907 1.629Zm-7.76 4.71-5.136-2.221c-1.004-.434-1.812-.961-2.424-1.58-.612-.619-.991-1.308-1.138-2.067-.154-.761-.044-1.572.328-2.433.323-.747.71-1.321 1.16-1.722.45-.401.955-.676 1.515-.823a5.95 5.95 0 0 1 1.788-.174l1.283-.137 4.312 1.864-1.033 2.437-3.191-1.38c-.4-.173-.763-.245-1.088-.215-.325.03-.61.148-.855.354-.254.209-.461.499-.621.87-.163.376-.233.729-.212 1.057.021.328.135.622.342.882.201.257.496.47.884.638l1.99.86 4.593-10.622 3.146 1.361-5.643 13.051Zm-1.501-16.14.39 7.02-3.342-1.424-.477-6.919.058-.135 3.371 1.458Zm-22.127 5.923-3.147-1.36 3.686-8.524c.439-1.016 1.024-1.785 1.753-2.307a4.407 4.407 0 0 1 2.47-.815c.919-.028 1.896.182 2.93.629 1.022.442 1.844 1.01 2.466 1.704.616.692.99 1.482 1.124 2.37.126.891-.031 1.844-.47 2.86l-3.686 8.525-3.155-1.365 3.685-8.524c.233-.538.345-1.011.337-1.419a1.656 1.656 0 0 0-.363-1.029c-.232-.285-.56-.519-.984-.702-.431-.186-.826-.265-1.186-.236-.36.029-.687.178-.981.448-.296.276-.561.683-.794 1.221l-3.685 8.524Zm-5.127-2.217-5.137-2.22c-1.004-.434-1.811-.961-2.423-1.58-.612-.619-.992-1.308-1.139-2.067-.153-.761-.043-1.572.329-2.433.323-.747.709-1.321 1.159-1.722.45-.401.956-.676 1.516-.823a5.95 5.95 0 0 1 1.788-.174l1.283-.137 4.311 1.864-1.032 2.437-3.191-1.38c-.4-.173-.763-.245-1.088-.215-.325.03-.61.148-.855.354-.254.209-.461.499-.621.87-.163.376-.234.729-.212 1.057.021.328.135.622.342.882.201.257.495.47.884.638l1.99.86 4.592-10.622 3.146 1.36-5.642 13.051Zm-1.502-16.139.391 7.02-3.342-1.424-.477-6.919.058-.135 3.37 1.458Zm-13.817 9.516 5.643-13.051 3.137 1.356-5.643 13.051-3.137-1.356Zm-13.114-5.67 5.643-13.051 3.137 1.356 1.105 10.117 3.511-8.121 3.147 1.361-5.643 13.051-3.147-1.361-1.105-10.117-3.511 8.121-3.137-1.356Zm-5.334-2.306 5.643-13.051 3.138 1.356-5.643 13.051-3.138-1.356Zm-4.294-10.762 3.361 1.453-.873 2.07-2.725-1.179c-.49-.211-.905-.327-1.244-.346-.342-.013-.625.06-.85.218-.23.156-.415.395-.555.718-.16.37-.22.699-.181.985.039.287.186.545.441.776.246.234.603.452 1.069.654l1.542.666 4.592-10.622 3.146 1.361-5.643 13.051-4.688-2.027c-.806-.349-1.494-.735-2.063-1.158-.571-.418-1.013-.871-1.327-1.361a3.254 3.254 0 0 1-.533-1.572c-.039-.549.073-1.128.336-1.737.23-.532.56-.982.988-1.35.429-.368.972-.583 1.631-.646.65-.06 1.434.102 2.354.486l1.222-.44Zm2.525-5.494 3.997 1.728-2.122 1.955-2.922-1.263c-.43-.186-.802-.269-1.116-.249-.322.024-.588.122-.797.294a1.735 1.735 0 0 0-.505.675 2.243 2.243 0 0 0-.206.944c.002.291.094.554.276.789.18.241.47.448.87.621l2.644 1.143-.909 2.054-3.164-1.368-.379-1.142c-.888-.342-1.525-.763-1.911-1.263-.393-.503-.6-1.033-.622-1.588a3.591 3.591 0 0 1 .292-1.587c.369-.854.863-1.488 1.482-1.902.613-.416 1.345-.61 2.198-.581.854.028 1.818.275 2.894.74Zm-20.012 6.838 5.643-13.051 3.146 1.36-5.643 13.051-3.146-1.36Zm-7.79-3.368 7.916-4.429 4.357-1.957-.674 3.134-3.132 2.051-4.585 2.879-3.882-1.678Zm9.363-11.443.828 7.338-3.226.744-1.322-9.69 3.72 1.608Zm-18.217.178.229-.529c.432-.998.96-1.833 1.584-2.507.616-.67 1.299-1.176 2.05-1.518a5.672 5.672 0 0 1 2.356-.503c.82.007 1.648.192 2.485.553.842.365 1.55.844 2.122 1.439a5.78 5.78 0 0 1 1.257 2.065c.265.781.367 1.627.307 2.537-.069.914-.319 1.87-.75 2.868l-.229.529c-.431.998-.956 1.835-1.575 2.51-.624.674-1.308 1.18-2.05 1.519a5.504 5.504 0 0 1-2.356.502c-.828-.003-1.664-.187-2.506-.551-.837-.362-1.537-.842-2.101-1.441a5.478 5.478 0 0 1-1.257-2.064c-.267-.776-.37-1.622-.307-2.538.063-.916.31-1.873.741-2.871Zm3.42.851-.236.547c-.279.645-.468 1.237-.566 1.776-.107.543-.125 1.028-.055 1.456a2.346 2.346 0 0 0 1.426 1.819c.419.18.821.251 1.206.212a2.263 2.263 0 0 0 1.106-.415c.354-.244.692-.591 1.014-1.041.313-.446.609-.992.888-1.637l.237-.547a9.34 9.34 0 0 0 .584-1.769c.104-.536.125-1.02.063-1.451a2.393 2.393 0 0 0-.455-1.112 2.47 2.47 0 0 0-.99-.737 2.348 2.348 0 0 0-1.179-.201 2.33 2.33 0 0 0-1.113.434c-.363.247-.704.593-1.023 1.036-.328.447-.63.99-.907 1.63Zm-9.621 4.756.628-1.452 1.905-3.571 1.847.799-1.55 3.585-.679 1.569-2.151-.93Zm-.972-1.272-5.136-2.22c-1.004-.434-1.811-.961-2.423-1.58-.612-.619-.992-1.308-1.139-2.067-.153-.761-.043-1.572.329-2.433.323-.747.709-1.321 1.159-1.722.45-.401.956-.676 1.516-.824a5.982 5.982 0 0 1 1.788-.173l1.283-.137 4.311 1.864-1.032 2.437-3.191-1.38c-.401-.173-.763-.245-1.088-.215-.325.03-.61.148-.855.354-.254.209-.461.499-.621.87-.163.376-.234.729-.213 1.057.022.328.136.622.343.882.201.257.495.47.884.638l1.99.86 4.592-10.622 3.146 1.36-5.643 13.051Zm-1.501-16.139.391 7.02-3.342-1.424-.477-6.919.058-.135 3.37 1.458Zm-13.817 9.516 5.643-13.051 3.137 1.356-5.643 13.051-3.137-1.356Zm-13.114-5.67 5.643-13.051 3.137 1.356 1.105 10.117 3.511-8.121 3.147 1.361-5.643 13.051-3.147-1.361-1.105-10.117-3.511 8.121-3.137-1.356ZM96.37 292.393l2.317-5.36c.328-.149.782-.265 1.363-.347.573-.078 1.249-.066 2.028.036.778.103 1.636.357 2.575.762.866.375 1.592.852 2.179 1.432a5.48 5.48 0 0 1 1.288 2.015c.267.761.369 1.592.305 2.493-.072.906-.328 1.866-.767 2.882l-.314.726c-.439 1.016-.967 1.859-1.582 2.529-.616.67-1.289 1.166-2.017 1.49a5.44 5.44 0 0 1-2.301.473 6.337 6.337 0 0 1-2.423-.548c-1.201-.519-2.095-1.133-2.683-1.841-.59-.702-.935-1.471-1.034-2.308-.101-.832-.005-1.702.288-2.61l3.02 1.306c-.125.456-.17.87-.131 1.241.03.374.163.705.4.992.235.293.595.545 1.079.754.376.163.755.23 1.135.203a2.309 2.309 0 0 0 1.098-.397c.355-.23.698-.564 1.029-1.002.325-.441.63-.99.915-1.648l.321-.744c.282-.651.475-1.245.579-1.782.098-.539.108-1.02.029-1.445a2.407 2.407 0 0 0-.543-1.107c-.282-.313-.663-.574-1.141-.78a4.351 4.351 0 0 0-.895-.292 2.811 2.811 0 0 0-.685-.04c-.2.019-.359.05-.476.092l-.876 2.025 2.187.946-.934 2.16-5.333-2.306Z" fill="#fff"/><path d="m584.443 468.865-.057 6.704 4.868-4.615 3.386 1.47-7.821 6.537-2.034 4.685-3.198-1.388 2.034-4.685-.572-10.182 3.394 1.474Zm12.148 8.532-7.652 8.921-3.377-1.466 10.455-10.962 2.141.93-1.567 2.577Zm-1.839 11.445 1.284-11.686.778-2.92 2.168.942-.844 15.134-3.386-1.47Zm1.987-4.918-1.054 2.427-6.692-2.905 1.054-2.428 6.692 2.906Zm18.913-1.508-5.663 13.042-3.135-1.361-1.089-10.119-3.524 8.116-3.144-1.365 5.663-13.043 3.144 1.365 1.089 10.119 3.524-8.116 3.135 1.362Zm6.487 6.074-7.653 8.921-3.377-1.467 10.455-10.961 2.141.929-1.566 2.578Zm-1.839 11.445 1.283-11.686.778-2.92 2.168.941-.843 15.135-3.386-1.47Zm1.986-4.919-1.054 2.428-6.691-2.906 1.054-2.427 6.691 2.905Zm14.655 5.554-3.359-1.458.876-2.068 2.723 1.182c.49.212.905.329 1.244.348.342.014.625-.058.85-.216.231-.156.416-.395.556-.717.161-.37.222-.699.183-.985-.039-.287-.186-.546-.44-.777-.246-.234-.602-.453-1.068-.655l-1.541-.669-4.608 10.615-3.145-1.365 5.663-13.043 4.685 2.034c.806.35 1.494.737 2.062 1.162.571.418 1.012.872 1.324 1.363a3.23 3.23 0 0 1 .531 1.572c.039.549-.074 1.128-.339 1.737-.23.531-.56.981-.99 1.348-.429.367-.973.582-1.631.644-.65.058-1.435-.105-2.353-.49l-1.223.438Zm-2.533 5.49-3.995-1.734 2.125-1.952 2.92 1.268c.43.187.802.27 1.116.25.322-.023.588-.121.797-.292.218-.175.387-.4.506-.675a2.24 2.24 0 0 0 .207-.943 1.266 1.266 0 0 0-.274-.79c-.179-.241-.469-.448-.869-.622l-2.643-1.147.913-2.053 3.162 1.373.377 1.143c.887.343 1.524.765 1.909 1.266.392.504.598 1.033.62 1.589a3.586 3.586 0 0 1-.295 1.586c-.371.854-.866 1.487-1.485 1.9-.613.415-1.346.608-2.199.578-.853-.03-1.817-.278-2.892-.745Zm15.651-8.705-5.663 13.042-3.135-1.361 5.662-13.043 3.136 1.362Zm2.212.96 5.133 2.229c1.003.436 1.81.963 2.421 1.584.611.62.989 1.309 1.135 2.068.152.762.042 1.572-.332 2.432-.324.747-.711 1.32-1.162 1.721a3.66 3.66 0 0 1-1.517.821 5.951 5.951 0 0 1-1.788.171l-1.283.135-4.309-1.871 1.036-2.435 3.189 1.385c.4.173.763.246 1.088.216.325-.029.61-.146.855-.352.255-.209.462-.499.623-.869.163-.376.234-.729.214-1.057a1.552 1.552 0 0 0-.341-.883c-.201-.257-.495-.47-.883-.639l-1.989-.863-4.609 10.615-3.144-1.365 5.663-13.043Zm1.477 16.143-.38-7.022 3.34 1.429.466 6.921-.058.134-3.368-1.462Zm-124.221-38.722-3.359-1.459.877-2.068 2.723 1.183c.489.212.904.328 1.243.348.342.013.625-.059.85-.217.231-.155.416-.394.556-.716.161-.371.222-.699.183-.986-.039-.286-.185-.545-.44-.776-.246-.235-.602-.453-1.068-.655l-1.54-.669-4.609 10.614-3.144-1.365 5.663-13.042 4.684 2.034c.807.35 1.494.737 2.062 1.161.571.418 1.012.873 1.325 1.363a3.25 3.25 0 0 1 .531 1.572c.038.549-.075 1.128-.339 1.738a3.69 3.69 0 0 1-.99 1.348c-.429.367-.973.582-1.632.643-.65.059-1.434-.104-2.353-.489l-1.223.438Zm-2.533 5.49-3.995-1.735 2.125-1.951 2.92 1.268c.43.186.802.27 1.116.25.322-.023.588-.121.798-.293.218-.175.386-.4.505-.674a2.23 2.23 0 0 0 .208-.943 1.271 1.271 0 0 0-.275-.79c-.179-.241-.469-.448-.869-.622l-2.642-1.148.912-2.052 3.162 1.373.377 1.143c.887.343 1.524.765 1.91 1.266.391.503.598 1.033.619 1.589a3.589 3.589 0 0 1-.295 1.586c-.37.854-.865 1.487-1.485 1.9-.613.415-1.346.607-2.199.578-.853-.03-1.817-.278-2.892-.745Zm20.627.897-.23.528c-.433.998-.962 1.832-1.587 2.505-.617.669-1.302 1.174-2.053 1.515a5.673 5.673 0 0 1-2.357.499c-.819-.008-1.647-.194-2.483-.557-.842-.365-1.549-.846-2.121-1.442a5.765 5.765 0 0 1-1.253-2.067c-.264-.782-.365-1.628-.304-2.538.071-.913.322-1.869.755-2.866l.23-.528c.433-.998.959-1.834 1.579-2.509.625-.672 1.309-1.177 2.052-1.515a5.506 5.506 0 0 1 2.357-.499c.828.005 1.663.19 2.505.556.836.363 1.536.844 2.099 1.443a5.48 5.48 0 0 1 1.253 2.067c.267.776.368 1.622.304 2.538-.065.916-.313 1.872-.746 2.87Zm-3.419-.856.238-.547c.28-.645.469-1.237.568-1.776.108-.542.127-1.027.057-1.455a2.305 2.305 0 0 0-.47-1.098 2.347 2.347 0 0 0-.953-.723c-.418-.181-.82-.253-1.206-.215a2.284 2.284 0 0 0-1.106.414c-.354.244-.693.59-1.015 1.039a9.237 9.237 0 0 0-.892 1.636l-.237.547a9.358 9.358 0 0 0-.587 1.768c-.105.536-.127 1.02-.065 1.451.067.434.218.805.453 1.113.242.31.571.556.989.738.4.173.793.241 1.179.203a2.344 2.344 0 0 0 1.114-.432c.363-.247.704-.592 1.024-1.035.329-.447.632-.989.909-1.628Zm7.768-4.698 5.133 2.229c1.003.435 1.81.963 2.421 1.583.611.62.989 1.31 1.135 2.069.152.762.041 1.572-.332 2.432-.324.747-.712 1.32-1.162 1.721-.451.4-.957.674-1.517.821a6.02 6.02 0 0 1-1.789.171l-1.283.135-4.308-1.871 1.036-2.435 3.189 1.384c.4.174.762.246 1.087.217.325-.029.611-.147.856-.352.254-.209.462-.499.622-.869.164-.377.235-.729.214-1.057a1.542 1.542 0 0 0-.34-.883c-.201-.257-.495-.47-.883-.639l-1.989-.863-4.609 10.615-3.144-1.365 5.663-13.043Zm1.476 16.142-.379-7.021 3.34 1.429.466 6.92-.059.135-3.368-1.463Zm22.136-5.889 3.144 1.365-3.698 8.518c-.441 1.016-1.026 1.784-1.756 2.304a4.405 4.405 0 0 1-2.471.812c-.92.026-1.897-.185-2.93-.634-1.021-.443-1.842-1.012-2.463-1.708a4.514 4.514 0 0 1-1.121-2.371c-.124-.891.034-1.845.475-2.86l3.699-8.518 3.153 1.369-3.699 8.518c-.233.538-.346 1.01-.339 1.418.01.402.131.745.362 1.03.231.285.559.52.983.704.43.187.825.266 1.185.238.36-.029.687-.178.982-.447.297-.276.562-.682.796-1.22l3.698-8.518Zm5.124 2.224 5.133 2.229c1.003.435 1.81.963 2.421 1.583.611.621.989 1.31 1.135 2.069.152.762.042 1.572-.332 2.432-.324.747-.711 1.32-1.162 1.721a3.66 3.66 0 0 1-1.517.821 5.951 5.951 0 0 1-1.788.171l-1.283.135-4.309-1.871 1.036-2.435 3.189 1.384c.4.174.763.246 1.088.217.325-.029.61-.147.855-.352.254-.209.462-.499.623-.869.163-.376.234-.729.214-1.057a1.552 1.552 0 0 0-.341-.883c-.201-.257-.495-.47-.883-.639l-1.989-.863-4.609 10.615-3.144-1.365 5.663-13.043Zm1.476 16.142-.379-7.021 3.34 1.429.466 6.921-.058.134-3.369-1.463Zm13.833-9.495-5.663 13.043-3.135-1.362 5.663-13.042 3.135 1.361Zm13.105 5.69-5.663 13.043-3.135-1.362-1.09-10.118-3.523 8.115-3.145-1.365 5.663-13.042 3.145 1.365 1.089 10.119 3.524-8.116 3.135 1.361Zm5.33 2.314-5.663 13.043-3.135-1.361 5.663-13.043 3.135 1.361Zm4.278 10.769-3.359-1.459.876-2.068 2.723 1.183c.49.212.905.329 1.244.348.342.014.625-.059.85-.216.23-.156.416-.395.556-.717.161-.37.222-.699.183-.985-.039-.287-.186-.546-.44-.777-.246-.235-.602-.453-1.068-.655l-1.541-.669-4.608 10.615-3.145-1.365 5.663-13.043 4.685 2.034c.806.35 1.494.737 2.062 1.162.571.418 1.012.872 1.324 1.363a3.23 3.23 0 0 1 .531 1.572c.039.549-.074 1.128-.339 1.737-.23.531-.56.981-.99 1.348-.429.367-.973.582-1.631.644-.65.058-1.435-.105-2.353-.49l-1.223.438Zm-2.533 5.49-3.995-1.734 2.125-1.952 2.92 1.268c.43.186.802.27 1.116.25.322-.023.588-.121.797-.292.218-.176.387-.4.506-.675.145-.335.214-.649.207-.943a1.266 1.266 0 0 0-.274-.79c-.179-.241-.469-.448-.869-.622l-2.643-1.147.913-2.053 3.162 1.373.377 1.143c.887.343 1.524.765 1.909 1.266.392.504.598 1.033.62 1.589a3.589 3.589 0 0 1-.295 1.586c-.371.854-.866 1.487-1.485 1.9-.613.415-1.346.608-2.199.578-.853-.03-1.817-.278-2.892-.745Zm20.022-6.807-5.663 13.042-3.144-1.365 5.663-13.043 3.144 1.366Zm7.784 3.379-7.922 4.418-4.36 1.95.679-3.133 3.134-2.046 4.591-2.873 3.878 1.684Zm-9.38 11.429-.817-7.339 3.227-.739 1.307 9.692-3.717-1.614Zm18.217-.15-.23.529c-.433.997-.962 1.832-1.587 2.504-.617.669-1.301 1.174-2.053 1.515a5.671 5.671 0 0 1-2.356.499c-.82-.008-1.648-.193-2.484-.556-.842-.366-1.549-.847-2.121-1.443a5.76 5.76 0 0 1-1.253-2.066c-.264-.782-.365-1.628-.303-2.538.07-.914.321-1.869.754-2.866l.23-.529c.433-.997.959-1.833 1.579-2.508.625-.673 1.309-1.178 2.052-1.515a5.507 5.507 0 0 1 2.357-.5c.828.005 1.663.19 2.505.556.836.363 1.536.844 2.099 1.444a5.476 5.476 0 0 1 1.253 2.066c.267.776.368 1.622.304 2.538-.064.916-.313 1.873-.746 2.87Zm-3.418-.856.237-.546a8.33 8.33 0 0 0 .569-1.776c.107-.543.126-1.028.056-1.455a2.313 2.313 0 0 0-.47-1.099 2.347 2.347 0 0 0-.953-.723c-.418-.181-.82-.253-1.206-.214-.383.032-.752.17-1.106.414-.354.243-.693.59-1.015 1.039a9.266 9.266 0 0 0-.892 1.636l-.237.546a9.278 9.278 0 0 0-.586 1.768c-.106.536-.128 1.02-.066 1.451.067.434.218.805.453 1.113.242.311.571.557.989.738a2.34 2.34 0 0 0 1.179.203 2.323 2.323 0 0 0 1.114-.432c.363-.247.704-.592 1.024-1.035.329-.446.632-.989.91-1.628Zm9.628-4.741-.63 1.451-1.911 3.567-1.845-.801 1.555-3.583.681-1.568 2.15.934Zm.97 1.273 5.132 2.228c1.004.436 1.811.964 2.422 1.584.61.62.989 1.309 1.135 2.068.152.762.041 1.573-.332 2.433-.324.746-.712 1.32-1.163 1.72-.45.401-.956.674-1.517.821a5.951 5.951 0 0 1-1.788.171l-1.283.135-4.308-1.87 1.036-2.436 3.189 1.385c.4.174.762.246 1.087.217.325-.03.61-.147.856-.353.254-.209.461-.499.622-.869.163-.376.235-.728.214-1.057a1.542 1.542 0 0 0-.341-.882c-.2-.258-.495-.471-.883-.639l-1.988-.864-4.609 10.615-3.144-1.365 5.663-13.042Zm1.476 16.142-.38-7.021 3.34 1.429.466 6.92-.058.134-3.368-1.462Zm13.832-9.495-5.663 13.042-3.135-1.361 5.663-13.043 3.135 1.362Zm13.105 5.69-5.663 13.042-3.135-1.361-1.089-10.119-3.524 8.116-3.144-1.365 5.663-13.043 3.144 1.365 1.089 10.119 3.524-8.116 3.135 1.362Zm10.021 11.569-2.326 5.356c-.327.149-.782.264-1.364.345-.573.078-1.249.065-2.027-.039-.778-.104-1.636-.359-2.574-.766-.866-.376-1.591-.854-2.177-1.435a5.487 5.487 0 0 1-1.285-2.017c-.266-.761-.366-1.592-.301-2.494.073-.905.331-1.865.771-2.88l.315-.726c.441-1.015.97-1.857 1.587-2.526.617-.669 1.29-1.165 2.019-1.487a5.428 5.428 0 0 1 2.301-.47c.803.015 1.61.199 2.423.551 1.2.522 2.093 1.137 2.68 1.845.589.703.932 1.474 1.03 2.311.1.831.003 1.701-.292 2.609l-3.019-1.31c.127-.456.172-.87.135-1.241a1.734 1.734 0 0 0-.4-.993c-.234-.294-.593-.545-1.077-.755a2.398 2.398 0 0 0-1.135-.206 2.307 2.307 0 0 0-1.098.396c-.355.23-.699.563-1.031 1.001-.326.44-.632.989-.917 1.646l-.323.743c-.282.651-.476 1.245-.581 1.781-.1.539-.11 1.021-.032 1.445.087.421.268.791.541 1.108.283.314.663.575 1.14.783.335.145.633.242.895.292.265.044.493.058.685.042.2-.019.359-.05.476-.091l.879-2.025-2.186-.949.938-2.159 5.33 2.315Z" fill="#C6CFFF"/><path d="M388.443 263.051h2.539v10.234l-2.011.195-9.19-5.712v-2.598l4.619 2.822 4.043 2.344v-7.285Zm-8.662 1.435H394v3.291h-14.219v-3.291Zm8.662-13.037h2.539v10.235l-2.011.195-9.19-5.713v-2.598l4.619 2.823 4.043 2.343v-7.285Zm-8.662 1.436H394v3.291h-14.219v-3.291Zm7.881-5.723-.615 2.617-7.266-.859v-8.311h2.559v5.625l2.822.323c-.091-.157-.198-.42-.322-.791a3.824 3.824 0 0 1-.195-1.25c0-.704.107-1.325.322-1.866a3.579 3.579 0 0 1 .928-1.386c.403-.378.901-.661 1.494-.85.592-.195 1.269-.293 2.031-.293.612 0 1.204.101 1.777.303a4.333 4.333 0 0 1 2.608 2.441c.26.619.39 1.351.39 2.197 0 .632-.097 1.247-.293 1.846a5.452 5.452 0 0 1-.84 1.621 4.21 4.21 0 0 1-1.337 1.133 3.69 3.69 0 0 1-1.768.4v-3.31c.345-.02.645-.101.898-.244.254-.143.453-.335.596-.576.137-.248.205-.531.205-.85 0-.325-.065-.596-.195-.811a1.387 1.387 0 0 0-.537-.507 2.558 2.558 0 0 0-.781-.264 5.547 5.547 0 0 0-.948-.078c-.351 0-.667.039-.947.117-.28.072-.518.189-.713.352a1.517 1.517 0 0 0-.459.634 2.42 2.42 0 0 0-.156.918c0 .476.081.85.244 1.123.163.274.329.472.498.596Zm-7.881-15.879H394v3.428h-14.219v-3.428Zm0-4.277h2.647v11.885h-2.647v-11.885Zm2.989-6.289 11.23 3.467v3.681l-14.219-5.224v-2.334l2.989.41Zm11.23-2.871-11.23 3.476-2.989.449v-2.363L394 214.154v3.692Zm-5.303.136h2.647v7.295h-2.647v-7.295Zm-.742-15.654v3.662l-2.246.02v-2.969c0-.534-.059-.96-.176-1.279-.124-.319-.303-.55-.537-.694-.234-.149-.527-.224-.879-.224-.403 0-.729.075-.976.224-.248.15-.427.388-.537.713-.118.319-.176.733-.176 1.24v1.68H394v3.428h-14.219v-5.108c0-.878.082-1.663.244-2.353.157-.69.398-1.276.723-1.758a3.253 3.253 0 0 1 1.231-1.113c.488-.254 1.064-.381 1.728-.381.579 0 1.123.124 1.631.371.508.248.921.661 1.24 1.24.313.573.475 1.358.488 2.354l.889.947Zm6.045.137v4.355l-2.637-1.172v-3.183c0-.469-.071-.843-.215-1.123-.149-.287-.345-.492-.586-.615a1.721 1.721 0 0 0-.82-.196c-.364 0-.68.062-.947.186a1.266 1.266 0 0 0-.615.566c-.15.261-.225.609-.225 1.045v2.881l-2.246-.02v-3.447l.898-.801c-.039-.95.095-1.702.401-2.255.306-.56.709-.961 1.211-1.202a3.583 3.583 0 0 1 1.572-.361c.931 0 1.709.202 2.334.606.625.397 1.094.992 1.406 1.787.313.794.469 1.777.469 2.949Zm-2.637-17.031H394v7.578h-2.637v-7.578Zm-11.582 6.357H394v3.428h-14.219v-3.428Zm5.645-5.381h2.549v6.602h-2.549v-6.602Zm-5.645-1.006h2.647v7.608h-2.647v-7.608Zm9.395-7.05v3.535h-2.647v-3.535c0-.482-.081-.873-.244-1.172a1.486 1.486 0 0 0-.674-.655 2.217 2.217 0 0 0-.986-.215 2.71 2.71 0 0 0-1.084.215 1.75 1.75 0 0 0-.801.655c-.208.299-.312.69-.312 1.172v2.246H394v3.427h-14.219v-5.673c0-1.14.209-2.12.625-2.94.417-.827.99-1.462 1.719-1.904.723-.443 1.549-.664 2.48-.664.918 0 1.719.221 2.403.664.683.442 1.217 1.077 1.601 1.904.378.82.567 1.8.567 2.94Zm-9.395-15.069v-3.428h9.287c1.107 0 2.045.232 2.813.694a4.395 4.395 0 0 1 1.728 1.943c.391.833.586 1.813.586 2.94 0 1.113-.195 2.093-.586 2.939a4.51 4.51 0 0 1-1.728 1.973c-.768.468-1.706.703-2.813.703h-9.287v-3.438h9.287c.586 0 1.065-.084 1.436-.254.364-.169.631-.416.801-.742.169-.325.254-.719.254-1.181 0-.469-.085-.863-.254-1.182a1.624 1.624 0 0 0-.801-.723c-.371-.162-.85-.244-1.436-.244h-9.287Zm11.582-14.98H394v7.187h-2.637v-7.187Zm-11.582 5.966H394v3.428h-14.219v-3.428Zm25.989 113.37 11.23 3.466v3.682l-14.219-5.225v-2.334l2.989.411ZM417 264.77l-11.23 3.476-2.989.449v-2.363L417 261.078v3.692Zm-5.303.136h2.647v7.295h-2.647v-7.295Zm-8.916-5.986 6.172-2.617-6.172-2.627v-3.692l9.112 4.571H417v3.486h-5.107l-9.112 4.58v-3.701Zm11.582-19.375H417v7.187h-2.637v-7.187Zm-11.582 5.967H417v3.427h-14.219v-3.427Zm2.989-13.633 11.23 3.467v3.681l-14.219-5.224v-2.334l2.989.41Zm11.23-2.871-11.23 3.476-2.989.45v-2.364L417 225.316v3.692Zm-5.303.137h2.647v7.294h-2.647v-7.294Zm-8.916-16.749H417v3.418l-8.848 5.03H417v3.427h-14.219v-3.427l8.848-5.03h-8.848v-3.418Zm0-8.759H417v3.427h-14.219v-3.427Zm0-4.278h2.647v11.885h-2.647v-11.885Zm0-5.097H417v3.418h-14.219v-3.418Zm0-2.412v-5.596c0-1.094.163-2.044.489-2.852.325-.807.807-1.429 1.445-1.865.638-.443 1.426-.664 2.363-.664.814 0 1.494.127 2.041.381a3.67 3.67 0 0 1 1.358 1.064c.351.45.641.974.869 1.573l.634 1.123v4.697l-2.646.019v-3.476c0-.436-.078-.798-.234-1.084a1.52 1.52 0 0 0-.664-.645c-.293-.149-.642-.224-1.045-.224-.411 0-.762.075-1.055.224-.293.15-.518.371-.674.664-.156.287-.234.642-.234 1.065v2.168H417v3.428h-14.219ZM417 184.066l-6.289 3.145-.02-3.633 6.163-3.183H417v3.671Zm-14.219-8.906H417v3.418h-14.219v-3.418Zm10.44-9.736c-.222 0-.42.032-.596.097a1.256 1.256 0 0 0-.508.362c-.156.176-.312.429-.469.762a9.827 9.827 0 0 0-.507 1.289 19.232 19.232 0 0 1-.704 1.806 8.006 8.006 0 0 1-.927 1.553 4.198 4.198 0 0 1-1.25 1.084c-.482.267-1.042.4-1.68.4a3.31 3.31 0 0 1-1.65-.41 3.755 3.755 0 0 1-1.26-1.142 5.465 5.465 0 0 1-.801-1.739 7.932 7.932 0 0 1-.283-2.177c0-1.042.182-1.96.547-2.754.358-.801.869-1.426 1.533-1.875.658-.456 1.436-.684 2.334-.684v3.408c-.358 0-.674.075-.947.225a1.52 1.52 0 0 0-.645.654c-.156.293-.234.661-.234 1.104 0 .429.065.791.195 1.084.13.293.306.514.527.664.215.15.453.224.713.224.215 0 .411-.058.586-.175.17-.124.329-.297.479-.518.15-.228.293-.501.43-.82.136-.326.27-.69.4-1.094.241-.755.511-1.426.81-2.012a6.21 6.21 0 0 1 1.006-1.494c.371-.41.795-.719 1.27-.928a3.881 3.881 0 0 1 1.611-.322c.638 0 1.205.124 1.699.371.495.248.915.602 1.26 1.065.339.462.596 1.015.772 1.66.175.644.263 1.364.263 2.158a8.65 8.65 0 0 1-.273 2.158 6.367 6.367 0 0 1-.86 1.914 4.44 4.44 0 0 1-1.494 1.377c-.612.339-1.338.508-2.177.508v-3.437c.416 0 .768-.056 1.054-.166a1.64 1.64 0 0 0 .694-.489c.169-.215.293-.478.371-.791.071-.312.107-.67.107-1.074 0-.436-.062-.788-.185-1.055-.131-.267-.3-.462-.508-.586a1.39 1.39 0 0 0-.703-.185Zm-4.795-14.776h2.636v7.295h-2.636v-7.295Zm-5.645 6.153H417v3.428h-14.219v-3.428Zm0-8.457H417v3.418h-14.219v-3.418Z" fill="#fff"/><path d="M403.539 578.244H401v-9.922h2.148l4.805 4.571c.462.403.876.729 1.24.976.371.248.707.427 1.006.537.3.117.57.176.811.176.41 0 .752-.062 1.025-.186.28-.117.492-.292.635-.527.143-.228.215-.511.215-.849 0-.339-.098-.635-.293-.889a1.935 1.935 0 0 0-.801-.596 3.023 3.023 0 0 0-1.143-.205v-3.301c.873 0 1.67.212 2.393.635a4.751 4.751 0 0 1 1.729 1.787c.436.762.654 1.644.654 2.647 0 1.048-.163 1.927-.488 2.636-.326.71-.798 1.244-1.416 1.602-.612.365-1.351.547-2.217.547-.495 0-.97-.078-1.426-.235a6.096 6.096 0 0 1-1.357-.673 11.6 11.6 0 0 1-1.368-1.075 32.793 32.793 0 0 1-1.494-1.425l-2.119-1.836v5.605Zm3.799 4.492.615-2.617 7.266.86v8.31h-2.559v-5.625l-2.822-.322c.091.156.198.42.322.791.13.377.195.794.195 1.25 0 .703-.107 1.325-.322 1.865a3.583 3.583 0 0 1-.928 1.387 3.857 3.857 0 0 1-1.494.849c-.592.196-1.269.293-2.031.293a5.33 5.33 0 0 1-1.777-.302 4.42 4.42 0 0 1-1.533-.909 4.315 4.315 0 0 1-1.075-1.533c-.26-.618-.39-1.351-.39-2.197 0-.632.097-1.247.293-1.846a5.485 5.485 0 0 1 .839-1.621 4.237 4.237 0 0 1 1.338-1.133 3.702 3.702 0 0 1 1.768-.4v3.31a2.03 2.03 0 0 0-.898.245 1.579 1.579 0 0 0-.596.576 1.72 1.72 0 0 0-.205.849c0 .326.065.596.195.811.13.215.309.384.537.508.228.123.488.211.781.263.3.053.616.079.948.079.351 0 .667-.04.947-.118.28-.071.518-.188.713-.351.202-.163.355-.375.459-.635a2.42 2.42 0 0 0 .156-.918c0-.475-.081-.85-.244-1.123-.163-.273-.329-.472-.498-.596Zm2.07 18.662h-2.597c-1.023 0-1.911-.12-2.666-.361-.756-.234-1.381-.573-1.875-1.016a4.056 4.056 0 0 1-1.104-1.562 5.366 5.366 0 0 1-.361-2.002c0-.586.075-1.133.224-1.641.157-.507.391-.966.703-1.377a4.526 4.526 0 0 1 1.192-1.044 5.76 5.76 0 0 1 1.68-.674c.651-.157 1.386-.235 2.207-.235h2.597c1.029 0 1.918.118 2.666.352.755.241 1.38.583 1.875 1.025.495.443.863.967 1.104 1.573.241.605.361 1.272.361 2.001 0 .586-.078 1.13-.234 1.631a4.18 4.18 0 0 1-1.885 2.422c-.475.293-1.038.518-1.69.674-.644.156-1.376.234-2.197.234Zm-2.998-3.291h3.418c.456 0 .853-.026 1.192-.078.338-.045.625-.117.859-.215.234-.091.423-.205.566-.341a1.2 1.2 0 0 0 .323-.469 1.45 1.45 0 0 0 .107-.567c0-.26-.055-.494-.166-.703a1.328 1.328 0 0 0-.508-.517c-.234-.143-.547-.254-.937-.332a8.085 8.085 0 0 0-1.436-.108h-3.418a9.29 9.29 0 0 0-1.211.069 4.29 4.29 0 0 0-.869.215 1.956 1.956 0 0 0-.576.351 1.252 1.252 0 0 0-.313.469 1.65 1.65 0 0 0-.097.576c0 .254.052.482.156.684.104.201.273.374.508.517.241.15.556.261.947.332.397.078.882.117 1.455.117Zm8.809 12.11H401v-3.428h14.219v3.428Zm0 4.277h-2.647v-11.885h2.647v11.885Zm-2.989 6.289L401 617.316v-3.681l14.219 5.224v2.334l-2.989-.41ZM401 623.654l11.23-3.476 2.989-.449v2.363L401 627.346v-3.692Zm5.303-.136h-2.647v-7.295h2.647v7.295Zm.742 15.654v-3.662l2.246-.02v2.969c0 .534.059.96.176 1.279.123.319.303.55.537.694.234.149.527.224.879.224.403 0 .729-.075.976-.224.248-.15.427-.388.537-.713.118-.319.176-.733.176-1.24v-1.68H401v-3.428h14.219v5.108c0 .878-.082 1.663-.244 2.353-.157.69-.398 1.276-.723 1.758a3.253 3.253 0 0 1-1.231 1.113c-.488.254-1.064.381-1.728.381a3.682 3.682 0 0 1-1.631-.371c-.508-.248-.921-.661-1.24-1.24-.313-.573-.475-1.358-.488-2.354l-.889-.947Zm-6.045-.137v-4.355l2.637 1.172v3.183c0 .469.071.843.215 1.123.149.287.345.492.585.615.248.131.521.196.821.196.364 0 .68-.062.947-.186.267-.117.472-.306.615-.566.15-.261.225-.609.225-1.045v-2.881l2.246.02v3.447l-.898.801c.039.95-.095 1.702-.401 2.255-.306.56-.709.961-1.211 1.202a3.583 3.583 0 0 1-1.572.361c-.931 0-1.709-.202-2.334-.606-.625-.397-1.094-.992-1.406-1.787-.313-.794-.469-1.777-.469-2.949Zm2.637 17.031H401v-7.578h2.637v7.578Zm11.582-6.357H401v-3.428h14.219v3.428Zm-5.645 5.381h-2.549v-6.602h2.549v6.602Zm5.645 1.006h-2.647v-7.608h2.647v7.608Zm-9.395 7.05v-3.535h2.647v3.535c0 .482.081.873.244 1.172.163.3.387.518.674.655.293.143.621.214.986.214a2.71 2.71 0 0 0 1.084-.214 1.75 1.75 0 0 0 .801-.655c.208-.299.312-.69.312-1.172V660.9H401v-3.427h14.219v5.673c0 1.14-.209 2.12-.625 2.94-.417.827-.99 1.462-1.719 1.904-.723.443-1.549.664-2.48.664-.918 0-1.719-.221-2.403-.664-.683-.442-1.217-1.077-1.601-1.904-.378-.82-.567-1.8-.567-2.94Zm9.395 15.069v3.428h-9.287c-1.107 0-2.045-.232-2.813-.694a4.395 4.395 0 0 1-1.728-1.943c-.391-.833-.586-1.813-.586-2.94 0-1.113.195-2.093.586-2.939a4.51 4.51 0 0 1 1.728-1.973c.768-.468 1.706-.703 2.813-.703h9.287v3.438h-9.287c-.586 0-1.065.084-1.436.254a1.654 1.654 0 0 0-.801.742c-.169.325-.254.719-.254 1.181 0 .469.085.863.254 1.182.17.319.437.56.801.723.371.162.85.244 1.436.244h9.287Zm-11.582 14.98H401v-7.187h2.637v7.187Zm11.582-5.966H401v-3.428h14.219v3.428ZM389.23 576.35 378 572.883v-3.682l14.219 5.225v2.334l-2.989-.41ZM378 579.221l11.23-3.477 2.989-.449v2.363L378 582.912v-3.691Zm5.303-.137h-2.647v-7.295h2.647v7.295Zm8.916 5.986-6.172 2.617 6.172 2.627v3.692l-9.112-4.57H378v-3.487h5.107l9.112-4.58v3.701Zm-11.582 19.375H378v-7.187h2.637v7.187Zm11.582-5.966H378v-3.428h14.219v3.428Zm-2.989 13.632L378 608.645v-3.682l14.219 5.224v2.334l-2.989-.41ZM378 614.982l11.23-3.476 2.989-.449v2.363L378 618.674v-3.692Zm5.303-.136h-2.647v-7.295h2.647v7.295Zm8.916 16.748H378v-3.418l8.848-5.03H378v-3.427h14.219v3.427l-8.848 5.03h8.848v3.418Zm0 8.76H378v-3.428h14.219v3.428Zm0 4.277h-2.647v-11.885h2.647v11.885Zm0 5.098H378v-3.418h14.219v3.418Zm0 2.412v5.595c0 1.094-.163 2.045-.489 2.852-.325.807-.807 1.429-1.445 1.865-.638.443-1.426.664-2.363.664-.814 0-1.494-.127-2.041-.381a3.66 3.66 0 0 1-1.358-1.064 5.996 5.996 0 0 1-.869-1.572l-.634-1.123v-4.698l2.646-.019v3.476c0 .437.078.798.234 1.084.157.287.378.502.664.645.293.15.642.224 1.045.224.411 0 .762-.074 1.055-.224.293-.15.518-.371.674-.664.156-.287.234-.641.234-1.065v-2.168H378v-3.427h14.219ZM378 659.924l6.289-3.145.02 3.633-6.163 3.184H378v-3.672Zm14.219 8.906H378v-3.418h14.219v3.418Zm-10.44 9.736c.222 0 .42-.032.596-.097.182-.065.352-.186.508-.362.156-.175.312-.429.469-.761.162-.326.332-.756.507-1.289.209-.625.443-1.228.703-1.807a8.09 8.09 0 0 1 .928-1.553 4.213 4.213 0 0 1 1.25-1.084c.482-.267 1.042-.4 1.68-.4.612 0 1.162.137 1.65.41.495.273.915.654 1.26 1.143.352.494.619 1.074.801 1.738.189.664.283 1.39.283 2.178 0 1.041-.182 1.959-.547 2.754-.358.8-.869 1.425-1.533 1.875-.658.455-1.436.683-2.334.683v-3.408c.358 0 .674-.075.947-.225a1.52 1.52 0 0 0 .645-.654c.156-.293.234-.661.234-1.103 0-.43-.065-.792-.195-1.084a1.525 1.525 0 0 0-.527-.665 1.225 1.225 0 0 0-.713-.224c-.215 0-.411.058-.586.176-.17.123-.329.296-.479.517-.15.228-.293.502-.43.821-.136.325-.27.69-.4 1.093a13.405 13.405 0 0 1-.81 2.012 6.21 6.21 0 0 1-1.006 1.494c-.371.41-.795.72-1.27.928-.475.215-1.012.322-1.611.322-.638 0-1.205-.124-1.699-.371a3.521 3.521 0 0 1-1.26-1.064c-.339-.463-.596-1.016-.772-1.661a8.226 8.226 0 0 1-.263-2.158c0-.729.091-1.448.273-2.158a6.39 6.39 0 0 1 .859-1.914 4.453 4.453 0 0 1 1.495-1.377c.612-.339 1.338-.508 2.177-.508v3.438c-.416 0-.768.055-1.054.166a1.63 1.63 0 0 0-.694.488 2.079 2.079 0 0 0-.371.791 4.879 4.879 0 0 0-.107 1.074c0 .436.062.788.185 1.055.131.267.3.462.508.586.215.124.449.185.703.185Zm4.795 14.776h-2.637v-7.295h2.637v7.295Zm5.645-6.153H378v-3.427h14.219v3.427Zm0 8.457H378v-3.417h14.219v3.417Z" fill="#C6CFFF"/><path d="m564.542 363.358-5.364.367-2.641-14.392 15.883-4.899 1.508 4.89-10.75 3.316 1.048 5.584c.245-.267.685-.627 1.322-1.083.644-.471 1.402-.841 2.273-1.11 1.344-.414 2.596-.575 3.755-.483a7.187 7.187 0 0 1 3.197.955c.96.549 1.795 1.334 2.505 2.355.722 1.017 1.308 2.254 1.757 3.709a10.62 10.62 0 0 1 .469 3.576 8.864 8.864 0 0 1-.832 3.465c-.506 1.097-1.272 2.082-2.297 2.957-1.028.862-2.351 1.543-3.969 2.042-1.207.372-2.44.548-3.7.528a10.946 10.946 0 0 1-3.593-.65 8.418 8.418 0 0 1-2.954-1.889c-.833-.846-1.436-1.894-1.807-3.142l6.327-1.951c.241.648.573 1.172.996 1.573.424.401.908.667 1.453.799.553.115 1.134.079 1.744-.109.622-.192 1.1-.476 1.434-.851.334-.376.552-.818.654-1.326a5.12 5.12 0 0 0 .043-1.649 11.007 11.007 0 0 0-.409-1.856 7.051 7.051 0 0 0-.782-1.741 3.586 3.586 0 0 0-1.092-1.156 3.064 3.064 0 0 0-1.484-.503c-.547-.049-1.162.032-1.846.243-.909.28-1.576.656-2.003 1.128-.426.473-.708.907-.845 1.303Zm34.446-14.957 1.531 4.964c.603 1.954.897 3.723.881 5.309-.002 1.581-.281 2.975-.835 4.182a8.125 8.125 0 0 1-2.336 3.03c-1.015.817-2.22 1.441-3.613 1.87-1.12.346-2.209.525-3.268.538a8.728 8.728 0 0 1-3.046-.532 9.056 9.056 0 0 1-2.699-1.661c-.84-.735-1.6-1.673-2.278-2.813-.683-1.152-1.266-2.512-1.749-4.08l-1.531-4.964c-.607-1.966-.907-3.734-.9-5.303.015-1.585.3-2.981.854-4.187a8.27 8.27 0 0 1 2.355-3.036c1.015-.818 2.219-1.441 3.613-1.871 1.119-.345 2.204-.516 3.255-.513a8.222 8.222 0 0 1 3.046.532 8.337 8.337 0 0 1 2.693 1.642c.84.736 1.602 1.68 2.284 2.832.678 1.139 1.26 2.493 1.743 4.061Zm-4.522 7.67-2.015-6.533a15.965 15.965 0 0 0-.852-2.231c-.286-.62-.592-1.125-.917-1.515-.312-.395-.641-.688-.987-.881a2.38 2.38 0 0 0-1.086-.34 2.88 2.88 0 0 0-1.146.129 2.952 2.952 0 0 0-1.246.731c-.324.318-.554.744-.689 1.276-.136.532-.163 1.195-.082 1.987.093.789.307 1.725.641 2.807l2.014 6.533c.273.883.554 1.641.845 2.274.299.616.607 1.127.923 1.534.325.39.662.688 1.011.894.346.193.706.3 1.08.321.375.021.761-.03 1.159-.153a2.95 2.95 0 0 0 1.215-.702c.324-.318.554-.743.689-1.275.145-.549.17-1.218.077-2.006-.085-.806-.297-1.756-.634-2.85Zm26.694-14.509 1.532 4.964c.602 1.954.896 3.723.881 5.309-.003 1.581-.282 2.975-.836 4.182a8.117 8.117 0 0 1-2.336 3.03c-1.015.817-2.219 1.441-3.613 1.87-1.12.346-2.209.525-3.268.538a8.732 8.732 0 0 1-3.046-.532 9.056 9.056 0 0 1-2.699-1.661c-.84-.735-1.599-1.673-2.278-2.813-.682-1.152-1.265-2.512-1.749-4.08l-1.531-4.964c-.606-1.966-.906-3.733-.9-5.302.015-1.586.3-2.982.855-4.188a8.267 8.267 0 0 1 2.354-3.036c1.015-.817 2.219-1.441 3.613-1.871 1.12-.345 2.205-.516 3.255-.513a8.239 8.239 0 0 1 3.046.532 8.351 8.351 0 0 1 2.694 1.642c.84.736 1.601 1.68 2.283 2.832.679 1.139 1.26 2.493 1.743 4.061Zm-4.522 7.67-2.015-6.533a15.848 15.848 0 0 0-.851-2.231c-.287-.62-.593-1.125-.917-1.515-.313-.394-.642-.688-.988-.881a2.375 2.375 0 0 0-1.085-.34 2.879 2.879 0 0 0-1.146.129 2.946 2.946 0 0 0-1.246.731c-.324.319-.554.744-.69 1.276-.136.532-.163 1.195-.082 1.988.093.788.307 1.724.641 2.806l2.015 6.533c.272.883.554 1.641.844 2.274.299.616.607 1.127.923 1.534.325.39.662.688 1.012.894.346.193.706.3 1.08.321.374.021.76-.03 1.159-.153a2.94 2.94 0 0 0 1.214-.702c.324-.318.554-.743.69-1.275.144-.549.169-1.218.076-2.006-.085-.805-.296-1.755-.634-2.85Zm6.475-13.137-.444-1.437c-.318-1.032-.384-2.041-.197-3.025s.65-1.87 1.388-2.656c.739-.787 1.774-1.385 3.105-1.796 1.369-.422 2.579-.516 3.633-.282 1.053.233 1.928.706 2.624 1.418.709.708 1.223 1.578 1.541 2.611l.444 1.437a6.132 6.132 0 0 1 .185 2.988c-.174.981-.631 1.864-1.369 2.65-.726.783-1.767 1.384-3.124 1.802-1.343.414-2.542.505-3.595.271-1.053-.234-1.941-.703-2.662-1.407a6.113 6.113 0 0 1-1.529-2.574Zm3.588-2.68.443 1.437c.115.373.299.705.552.995.253.29.561.494.925.614.373.103.783.085 1.231-.053.46-.142.803-.357 1.027-.644.221-.3.348-.639.382-1.017.045-.382.011-.76-.104-1.133l-.444-1.437a2.808 2.808 0 0 0-.563-1.032 1.806 1.806 0 0 0-.901-.601c-.364-.119-.776-.108-1.236.034-.436.134-.77.353-1.004.657a1.932 1.932 0 0 0-.424 1.01c-.046.382-.007.772.116 1.17Zm14.023 13.988-.443-1.437c-.315-1.02-.379-2.023-.192-3.007.199-.988.668-1.875 1.407-2.662.751-.79 1.792-1.39 3.123-1.801 1.369-.422 2.574-.515 3.614-.277 1.054.234 1.928.707 2.625 1.419.709.707 1.221 1.572 1.535 2.592l.443 1.437c.315 1.02.379 2.022.192 3.007-.174.98-.625 1.862-1.351 2.644-.726.783-1.767 1.383-3.123 1.802-1.344.414-2.549.506-3.614.276-1.066-.23-1.959-.697-2.681-1.401-.709-.708-1.221-1.572-1.535-2.592Zm3.607-2.686.443 1.437c.119.386.323.718.614.996.29.278.623.475.999.591.373.103.746.097 1.119-.018.572-.177.965-.407 1.177-.69.221-.3.323-.631.307-.994a3.97 3.97 0 0 0-.185-1.129l-.443-1.437a2.762 2.762 0 0 0-.558-1.013 1.926 1.926 0 0 0-.919-.595c-.364-.12-.77-.11-1.218.028-.448.138-.789.359-1.022.662a1.927 1.927 0 0 0-.424 1.01c-.046.382-.009.766.11 1.152Zm-1.54-17.716-6.719 25.332-3.385-.571 6.719-25.332 3.385.571Z" fill="#fff"/><path d="m230.212 472.682 5.356-.47 2.916 14.339-15.785 5.203-1.602-4.86 10.684-3.522-1.154-5.562c-.24.271-.674.64-1.301 1.107-.636.484-1.386.868-2.252 1.154-1.336.44-2.584.625-3.745.555a7.176 7.176 0 0 1-3.215-.894c-.97-.53-1.819-1.299-2.549-2.306-.742-1.003-1.351-2.228-1.828-3.675a10.642 10.642 0 0 1-.538-3.566 8.893 8.893 0 0 1 .765-3.481c.486-1.105 1.233-2.106 2.24-3 1.012-.882 2.322-1.588 3.929-2.117 1.2-.396 2.43-.595 3.69-.599 1.26-.004 2.461.189 3.605.58a8.423 8.423 0 0 1 2.989 1.832c.85.831 1.472 1.866 1.867 3.107l-6.288 2.072c-.253-.643-.595-1.161-1.026-1.553a3.16 3.16 0 0 0-1.468-.771c-.555-.105-1.136-.057-1.742.142-.618.204-1.091.497-1.417.879a2.787 2.787 0 0 0-.629 1.338 5.133 5.133 0 0 0-.011 1.649c.088.601.236 1.217.444 1.848.22.668.492 1.243.816 1.726.311.487.683.865 1.114 1.134.436.282.933.44 1.493.475.548.038 1.161-.054 1.842-.278.902-.298 1.562-.687 1.98-1.167.417-.481.691-.92.82-1.319Zm-34.153 15.616-1.626-4.934c-.64-1.942-.967-3.705-.983-5.291-.027-1.581.225-2.98.756-4.197a8.089 8.089 0 0 1 2.277-3.074c.999-.837 2.191-1.484 3.576-1.94a11.53 11.53 0 0 1 3.257-.6 8.725 8.725 0 0 1 3.056.473c.966.353 1.877.89 2.731 1.609.854.719 1.631 1.642 2.331 2.769.704 1.138 1.313 2.487 1.827 4.045l1.626 4.934c.644 1.954.978 3.716 1.002 5.285.015 1.585-.243 2.986-.774 4.203a8.272 8.272 0 0 1-2.296 3.08c-.999.837-2.191 1.484-3.576 1.94-1.113.367-2.195.559-3.245.576a8.235 8.235 0 0 1-3.056-.474 8.336 8.336 0 0 1-2.724-1.59c-.854-.719-1.633-1.648-2.338-2.787-.7-1.127-1.307-2.469-1.821-4.027Zm4.375-7.755 2.139 6.492c.286.866.584 1.604.895 2.214.298.615.614 1.114.946 1.498.32.388.654.676 1.004.862.353.199.717.305 1.092.319.366.03.747-.02 1.143-.151a2.958 2.958 0 0 0 1.232-.755c.318-.325.54-.754.665-1.289.125-.535.14-1.198.044-1.989-.109-.786-.34-1.718-.695-2.794l-2.14-6.492a18.55 18.55 0 0 0-.888-2.257c-.311-.611-.628-1.116-.952-1.517-.332-.384-.675-.675-1.029-.874a2.455 2.455 0 0 0-1.086-.3 3.271 3.271 0 0 0-1.155.175c-.482.159-.883.4-1.201.725-.318.324-.54.753-.665 1.288-.134.552-.146 1.221-.038 2.007.101.804.33 1.749.689 2.838Zm-26.412 15.018-1.626-4.934c-.64-1.942-.967-3.705-.983-5.291-.027-1.581.224-2.98.756-4.197a8.089 8.089 0 0 1 2.277-3.074c.999-.837 2.191-1.483 3.576-1.94a11.53 11.53 0 0 1 3.257-.6 8.748 8.748 0 0 1 3.056.473c.966.353 1.877.89 2.731 1.609.854.719 1.631 1.642 2.331 2.769.704 1.139 1.313 2.487 1.827 4.045l1.626 4.935c.644 1.953.978 3.715 1.002 5.284.015 1.585-.243 2.986-.774 4.203a8.294 8.294 0 0 1-2.296 3.081c-.999.836-2.191 1.483-3.576 1.939-1.113.367-2.195.559-3.245.576a8.234 8.234 0 0 1-3.056-.473 8.34 8.34 0 0 1-2.724-1.591c-.854-.719-1.634-1.648-2.338-2.787-.7-1.127-1.307-2.469-1.821-4.027Zm4.375-7.755 2.139 6.492c.286.866.584 1.604.895 2.214.298.615.614 1.114.946 1.498.32.388.654.676 1.004.862.353.199.717.305 1.092.319.366.03.747-.02 1.143-.151a2.958 2.958 0 0 0 1.232-.755c.318-.324.539-.754.665-1.289.125-.535.14-1.198.044-1.988-.109-.787-.341-1.719-.695-2.795l-2.14-6.492a18.615 18.615 0 0 0-.888-2.257c-.311-.611-.628-1.116-.952-1.517-.332-.384-.675-.675-1.029-.874a2.468 2.468 0 0 0-1.086-.3 3.294 3.294 0 0 0-1.155.175 2.936 2.936 0 0 0-1.201.725c-.318.324-.54.754-.665 1.288-.134.552-.146 1.221-.038 2.008.1.803.33 1.749.689 2.837Zm-6.221 13.258.47 1.428c.339 1.027.424 2.034.256 3.022-.168.987-.614 1.881-1.337 2.682-.724.8-1.747 1.418-3.07 1.855-1.36.448-2.569.565-3.627.352-1.057-.214-1.941-.67-2.651-1.368-.722-.694-1.253-1.554-1.591-2.581l-.471-1.428a6.126 6.126 0 0 1-.243-2.984c.156-.984.595-1.876 1.319-2.676.71-.797 1.74-1.417 3.088-1.861 1.335-.441 2.532-.554 3.589-.34 1.058.213 1.954.665 2.689 1.355a6.133 6.133 0 0 1 1.579 2.544Zm-3.536 2.749-.471-1.428a2.713 2.713 0 0 0-.571-.984 2.06 2.06 0 0 0-.937-.596c-.374-.096-.784-.071-1.229.076-.458.151-.796.372-1.016.663a1.975 1.975 0 0 0-.361 1.024c-.039.383.003.76.126 1.131l.47 1.428c.131.396.325.737.584 1.022.246.289.55.483.912.583.366.113.778.093 1.235-.057.433-.143.763-.368.991-.676a1.94 1.94 0 0 0 .405-1.018 2.819 2.819 0 0 0-.138-1.168Zm-14.29-13.717.471 1.429c.334 1.014.418 2.015.25 3.002-.181.992-.633 1.888-1.356 2.689-.736.804-1.765 1.425-3.088 1.861-1.361.448-2.563.563-3.608.346-1.058-.214-1.942-.67-2.652-1.368-.722-.694-1.25-1.548-1.585-2.562l-.47-1.429c-.334-1.014-.418-2.015-.25-3.002.156-.984.589-1.874 1.3-2.67.711-.797 1.741-1.417 3.089-1.861 1.335-.44 2.538-.556 3.608-.346 1.07.209 1.972.659 2.707 1.349.722.694 1.25 1.548 1.584 2.562Zm-3.554 2.756-.471-1.429a2.292 2.292 0 0 0-.633-.984 2.478 2.478 0 0 0-1.011-.572 1.955 1.955 0 0 0-1.118.04c-.569.187-.956.425-1.163.712a1.52 1.52 0 0 0-.288 1c.011.366.08.741.206 1.125l.471 1.428c.127.383.319.718.577 1.003.259.285.569.477.931.577.366.113.772.095 1.217-.051.445-.147.782-.374 1.009-.683.232-.295.367-.634.405-1.017a2.767 2.767 0 0 0-.132-1.149Zm1.88 17.683 6.231-25.457 3.395.506-6.231 25.456-3.395-.505ZM289.727 304.901l10.938-9.085 2.102 2.532-8.083 6.713 2.8 1.889-1.923 1.598-5.641-3.414-.193-.233Zm1.507-10.52 1.199 2.407-6.138 3.981-5.31-6.393 1.968-1.635 3.594 4.327 2.377-1.555c-.17-.062-.421-.196-.753-.403a3.803 3.803 0 0 1-.949-.836c-.449-.541-.764-1.088-.944-1.641a3.599 3.599 0 0 1-.172-1.66 3.869 3.869 0 0 1 .606-1.608c.331-.529.79-1.036 1.376-1.523a5.324 5.324 0 0 1 1.56-.903 4.455 4.455 0 0 1 1.76-.281 4.34 4.34 0 0 1 1.806.493c.596.31 1.164.79 1.704 1.441.404.486.722 1.022.954 1.607.233.586.363 1.18.39 1.784a4.23 4.23 0 0 1-.305 1.726 3.701 3.701 0 0 1-1.104 1.437l-2.115-2.546c.253-.236.431-.49.535-.762a1.58 1.58 0 0 0 .09-.824 1.729 1.729 0 0 0-.385-.785c-.208-.25-.431-.416-.668-.498a1.398 1.398 0 0 0-.738-.048 2.58 2.58 0 0 0-.769.296 5.48 5.48 0 0 0-.779.546 3.508 3.508 0 0 0-.654.695c-.17.234-.277.476-.324.726-.051.254-.033.515.053.781.082.262.237.531.466.806.304.366.606.602.905.708.3.107.555.153.764.14Zm-13.516-13.033 1.998-1.66c.786-.653 1.547-1.128 2.282-1.425.731-.302 1.428-.441 2.091-.417.66.02 1.275.185 1.847.497a5.347 5.347 0 0 1 1.557 1.309c.375.451.667.92.876 1.406.204.49.317.993.339 1.508a4.547 4.547 0 0 1-.249 1.565c-.178.529-.466 1.06-.862 1.592-.401.536-.917 1.066-1.548 1.59l-1.998 1.66c-.791.657-1.55 1.135-2.276 1.433-.734.297-1.434.434-2.097.409a4.134 4.134 0 0 1-1.854-.504 5.373 5.373 0 0 1-1.557-1.309 5.458 5.458 0 0 1-.861-1.405 4.179 4.179 0 0 1-.098-3.067 5.778 5.778 0 0 1 .869-1.598c.396-.532.91-1.06 1.541-1.584Zm4.409.616-2.629 2.184c-.351.291-.64.565-.867.821-.231.252-.406.49-.524.715-.122.22-.194.428-.217.624-.028.201-.011.39.051.567.053.176.147.344.28.504.166.201.358.346.577.435.209.089.449.113.721.074.272-.04.583-.154.933-.344a7.99 7.99 0 0 0 1.173-.834l2.63-2.184c.355-.295.651-.571.887-.826.228-.257.405-.497.532-.721.118-.225.191-.438.218-.639a1.224 1.224 0 0 0-.059-.56 1.636 1.636 0 0 0-.293-.505 1.454 1.454 0 0 0-.557-.426 1.321 1.321 0 0 0-.721-.074c-.281.039-.595.155-.941.35a7.666 7.666 0 0 0-1.194.839Zm-14.513-3.687 10.938-9.085 2.19 2.637-10.938 9.085-2.19-2.637Zm-2.733-3.291 2.036-1.69 7.593 9.142-2.036 1.691-7.593-9.143Zm-1.72-6.747 10.855-4.508 2.352 2.832-14.276 5.065-1.491-1.795 2.56-1.594Zm6.805-9.384-6.418 9.85-2.012 2.255-1.509-1.818 7.581-13.127 2.358 2.84Zm-3.992 3.493 2.036-1.691 4.661 5.612-2.036 1.691-4.661-5.612Zm-10.572-11.568 2.339 2.817-1.715 1.45-1.897-2.283c-.341-.411-.658-.702-.952-.872-.299-.167-.585-.23-.857-.19-.276.034-.549.164-.819.388-.311.258-.513.524-.608.797-.095.273-.081.571.042.892.114.32.333.675.658 1.066l1.073 1.292 8.902-7.394 2.19 2.637-10.938 9.085-3.263-3.929c-.562-.676-1.001-1.332-1.316-1.967-.321-.63-.51-1.235-.567-1.813a3.236 3.236 0 0 1 .235-1.643c.213-.507.575-.973 1.086-1.397a3.665 3.665 0 0 1 1.492-.757c.549-.134 1.131-.08 1.746.162.607.241 1.233.74 1.88 1.498l1.289.161Zm4.737-3.757 2.783 3.351-2.777.783-2.034-2.449c-.3-.361-.594-.603-.883-.727-.298-.125-.58-.158-.844-.099a1.746 1.746 0 0 0-.756.374c-.28.233-.484.482-.61.748-.13.261-.168.537-.111.829.051.296.216.612.495.947l1.84 2.216-1.74 1.42-2.203-2.652.18-1.19c-.638-.706-1.015-1.37-1.134-1.991-.122-.626-.067-1.192.165-1.697.231-.506.557-.934.978-1.283.716-.595 1.444-.937 2.183-1.025.734-.094 1.475.064 2.223.476.748.411 1.496 1.068 2.245 1.969Zm-12.91-11.417 2.028-1.685 4.842 5.83-2.028 1.685-4.842-5.83Zm-4.848 12.291 10.938-9.085 2.19 2.637-10.938 9.085-2.19-2.637Zm.904-7.746 1.961-1.629 4.218 5.079-1.961 1.628-4.218-5.078Zm-4.984 2.833 2.035-1.691 4.861 5.852-2.036 1.691-4.86-5.852Zm2.722-11.427 2.258 2.72-2.036 1.691-2.258-2.72c-.308-.37-.62-.619-.937-.745a1.48 1.48 0 0 0-.936-.073 2.212 2.212 0 0 0-.896.465 2.69 2.69 0 0 0-.697.858 1.75 1.75 0 0 0-.198 1.015c.031.363.201.73.509 1.101l1.435 1.728 8.902-7.394 2.19 2.637-10.938 9.084-3.625-4.364c-.728-.877-1.194-1.764-1.398-2.661-.207-.902-.172-1.757.106-2.563.273-.802.768-1.501 1.484-2.096.706-.586 1.463-.928 2.272-1.024.809-.096 1.625.051 2.449.442.814.39 1.586 1.023 2.314 1.899Zm-16.855-5.589-2.19-2.637 7.144-5.934c.852-.707 1.721-1.128 2.607-1.263a4.405 4.405 0 0 1 2.571.39c.833.392 1.61 1.021 2.329 1.887.711.857 1.187 1.735 1.427 2.636a4.508 4.508 0 0 1-.069 2.622c-.291.851-.863 1.63-1.714 2.338l-7.144 5.933-2.197-2.644 7.145-5.934c.45-.374.764-.745.942-1.112.172-.363.219-.724.141-1.083-.077-.358-.264-.716-.559-1.071-.3-.361-.616-.61-.951-.747a1.614 1.614 0 0 0-1.077-.044c-.39.112-.81.355-1.261.729l-7.144 5.934Zm-.662-18.924 2.029-1.685 4.592 5.529-2.028 1.685-4.593-5.529Zm-5.097 11.99 10.938-9.085 2.19 2.637-10.938 9.085-2.19-2.637Zm91.657 71.246 10.854-4.509 2.353 2.833-14.277 5.065-1.491-1.795 2.561-1.594Zm6.805-9.384-6.418 9.85-2.012 2.254-1.51-1.818 7.581-13.126 2.359 2.84Zm-3.992 3.493 2.036-1.691 4.661 5.612-2.036 1.691-4.661-5.612Zm-10.684 1.092 3.076-5.957-6.426 1.922-2.359-2.839 9.929-2.306 3.929-3.263 2.228 2.682-3.929 3.263-4.083 9.345-2.365-2.847Zm-3.469-22.305 2.028-1.685 4.593 5.529-2.029 1.685-4.592-5.529Zm-5.097 11.99 10.938-9.085 2.19 2.637-10.938 9.085-2.19-2.637Zm-6.412-12.397 10.854-4.508 2.353 2.832-14.277 5.066-1.491-1.796 2.561-1.594Zm6.805-9.384-6.418 9.85-2.012 2.255-1.51-1.818 7.581-13.126 2.359 2.839Zm-3.992 3.494 2.036-1.691 4.661 5.611-2.036 1.691-4.661-5.611Zm-17.56-7.187 10.939-9.085 2.183 2.629-3.593 9.522 6.807-5.653 2.19 2.637-10.938 9.085-2.19-2.637 3.593-9.522-6.807 5.653-2.184-2.629Zm-5.596-6.739 10.938-9.085 2.19 2.637-10.938 9.085-2.19-2.637Zm-2.733-3.291 2.036-1.69 7.593 9.142-2.036 1.691-7.593-9.143Zm-3.257-3.921 10.938-9.085 2.184 2.63-10.938 9.084-2.184-2.629Zm-1.541-1.856-3.576-4.304c-.698-.842-1.181-1.677-1.446-2.506-.265-.829-.292-1.615-.08-2.358.208-.748.673-1.422 1.394-2.021.626-.52 1.23-.857 1.813-1.011a3.655 3.655 0 0 1 1.725-.048 5.993 5.993 0 0 1 1.673.654l1.206.458 3.001 3.614-2.024 1.706-2.221-2.675c-.279-.335-.569-.563-.873-.684a1.512 1.512 0 0 0-.922-.072c-.321.072-.637.237-.948.495-.315.262-.538.545-.668.847a1.548 1.548 0 0 0-.094.941c.063.321.23.643.5.969l1.385 1.668 8.903-7.394 2.19 2.637-10.938 9.084Zm5.965-15.072-2.829 6.438-2.336-2.783 2.706-6.386.113-.093 2.346 2.824Zm-16.629 2.234 10.938-9.085 2.184 2.629-10.938 9.085-2.184-2.629Zm1.81-14.16c-.17.141-.302.293-.396.456a1.251 1.251 0 0 0-.159.602c-.008.235.034.53.126.885.082.355.227.794.433 1.317.239.613.443 1.226.613 1.839a7.98 7.98 0 0 1 .278 1.787 4.175 4.175 0 0 1-.269 1.632c-.2.514-.545.974-1.036 1.382a3.323 3.323 0 0 1-1.531.739 3.763 3.763 0 0 1-1.7-.075 5.477 5.477 0 0 1-1.726-.825 7.942 7.942 0 0 1-1.61-1.494c-.665-.802-1.111-1.624-1.338-2.468-.237-.845-.243-1.652-.019-2.422.215-.771.668-1.443 1.359-2.017l2.177 2.621c-.275.229-.47.489-.585.778-.119.285-.145.59-.078.916.067.325.242.658.525.998.275.331.556.567.843.709.287.142.564.2.83.174a1.22 1.22 0 0 0 .692-.282c.165-.138.278-.308.338-.51.052-.203.064-.438.038-.704a5.338 5.338 0 0 0-.194-.906 13.814 13.814 0 0 0-.391-1.097 13.345 13.345 0 0 1-.661-2.065 6.133 6.133 0 0 1-.181-1.792 3.699 3.699 0 0 1 .384-1.525c.228-.469.572-.895 1.033-1.278.491-.407 1.006-.674 1.544-.8a3.528 3.528 0 0 1 1.65.014c.555.14 1.107.401 1.654.784a8.234 8.234 0 0 1 1.582 1.492 8.678 8.678 0 0 1 1.168 1.835 6.4 6.4 0 0 1 .562 2.022 4.44 4.44 0 0 1-.27 2.014c-.254.651-.704 1.245-1.35 1.782l-2.197-2.645c.321-.266.556-.533.706-.801.149-.268.223-.541.221-.819a2.07 2.07 0 0 0-.22-.846 4.876 4.876 0 0 0-.604-.895c-.278-.335-.551-.566-.816-.692-.271-.122-.526-.165-.765-.127a1.388 1.388 0 0 0-.66.307Zm-13.129-8.303 2.029-1.684 4.661 5.611-2.029 1.685-4.661-5.612Zm-.411 8.339 10.938-9.084 2.19 2.637-10.938 9.084-2.19-2.637Zm-5.403-6.505 10.938-9.085 2.184 2.629-10.939 9.085-2.183-2.629Z" fill="#C6CFFF"/><path d="m504.262 568.581-4.018 3.106-12.136-15.7 3.399-2.628 13.193 1.355c1.226.073 2.278.083 3.157.028.89-.062 1.64-.189 2.249-.38.617-.181 1.116-.419 1.498-.714.649-.501 1.114-1.017 1.395-1.547.3-.528.42-1.065.36-1.611-.052-.536-.286-1.072-.7-1.607-.414-.536-.931-.885-1.55-1.048-.62-.163-1.285-.151-1.996.037-.703.197-1.389.555-2.059 1.073l-4.037-5.223c1.38-1.067 2.901-1.708 4.562-1.922 1.669-.204 3.31.033 4.921.713 1.622.672 3.046 1.801 4.273 3.387 1.282 1.659 2.099 3.249 2.452 4.77.353 1.521.259 2.943-.282 4.266-.522 1.326-1.468 2.518-2.838 3.577a8.736 8.736 0 0 1-2.543 1.373c-.912.31-1.903.508-2.972.594a23.373 23.373 0 0 1-3.478-.027 63.949 63.949 0 0 1-4.108-.429l-5.599-.313 6.857 8.87Zm11.505 2.462-2.227-4.894 12.548-7.527 10.165 13.15-4.049 3.129-6.88-8.9-4.86 2.942c.335.136.828.421 1.477.857.668.439 1.281 1.018 1.838 1.739.861 1.113 1.451 2.228 1.772 3.346.339 1.12.415 2.23.228 3.329-.177 1.091-.618 2.149-1.325 3.172-.698 1.034-1.65 2.017-2.856 2.948a10.6 10.6 0 0 1-3.182 1.695 8.853 8.853 0 0 1-3.537.438c-1.205-.089-2.397-.459-3.575-1.112-1.169-.66-2.271-1.659-3.306-2.999a11.796 11.796 0 0 1-1.794-3.279 10.932 10.932 0 0 1-.654-3.592 8.44 8.44 0 0 1 .731-3.429c.5-1.078 1.269-2.01 2.307-2.796l4.05 5.239c-.522.453-.897.948-1.123 1.485a3.161 3.161 0 0 0-.238 1.64c.086.559.324 1.091.715 1.596.398.515.831.863 1.3 1.043.469.181.959.23 1.471.147a5.16 5.16 0 0 0 1.559-.538 11.075 11.075 0 0 0 1.594-1.035 7.055 7.055 0 0 0 1.356-1.345c.355-.455.588-.931.698-1.428a3.05 3.05 0 0 0-.05-1.566c-.146-.529-.438-1.077-.876-1.643-.581-.752-1.168-1.245-1.76-1.479-.592-.233-1.097-.345-1.517-.333Zm26.103 26.998-4.11 3.177c-1.617 1.25-3.171 2.147-4.661 2.689-1.481.553-2.884.782-4.209.687a8.118 8.118 0 0 1-3.657-1.123c-1.122-.664-2.129-1.572-3.021-2.726a11.56 11.56 0 0 1-1.651-2.871 8.76 8.76 0 0 1-.572-3.039c.011-1.029.214-2.065.607-3.11.394-1.045 1.005-2.086 1.834-3.121.839-1.044 1.908-2.067 3.206-3.071l4.11-3.177c1.628-1.258 3.177-2.16 4.649-2.705 1.489-.542 2.897-.766 4.221-.671a8.276 8.276 0 0 1 3.669 1.139c1.122.663 2.129 1.572 3.021 2.725.716.928 1.258 1.883 1.624 2.868.384.986.574 1.999.571 3.039.008 1.031-.19 2.064-.591 3.098-.394 1.045-1.01 2.089-1.849 3.133-.829 1.036-1.893 2.055-3.191 3.059Zm-8.769-1.541 5.408-4.181a15.717 15.717 0 0 0 1.79-1.581c.48-.486.846-.949 1.097-1.391.259-.431.419-.842.478-1.233.07-.4.049-.778-.063-1.136a2.882 2.882 0 0 0-.523-1.028 2.943 2.943 0 0 0-1.123-.909c-.411-.192-.89-.258-1.436-.198-.546.06-1.176.267-1.89.621-.706.365-1.507.893-2.403 1.586l-5.408 4.181a18.631 18.631 0 0 0-1.833 1.589c-.472.497-.843.964-1.112 1.403-.252.441-.412.862-.482 1.261-.059.392-.033.766.079 1.124.112.358.295.702.55 1.031.311.402.672.699 1.083.891.412.192.891.258 1.437.198.564-.058 1.199-.269 1.905-.634.724-.362 1.539-.893 2.446-1.594Zm14.573 1.448 1.19-.92c.855-.661 1.776-1.076 2.764-1.247.987-.171 1.978-.048 2.974.367.996.415 1.92 1.174 2.772 2.276.876 1.133 1.389 2.234 1.54 3.302.151 1.069.016 2.054-.406 2.956-.414.912-1.048 1.699-1.903 2.36l-1.19.92a6.132 6.132 0 0 1-2.733 1.223c-.979.181-1.966.064-2.962-.351-.988-.405-1.916-1.169-2.784-2.292-.86-1.113-1.365-2.203-1.516-3.271-.151-1.069-.024-2.064.382-2.987a6.13 6.13 0 0 1 1.872-2.336Zm3.77 2.418-1.19.92a2.722 2.722 0 0 0-.737.866c-.183.339-.266.7-.25 1.082.034.385.195.763.482 1.134.294.381.615.626.963.736.359.102.721.101 1.087 0a2.724 2.724 0 0 0 1.024-.496l1.19-.919c.329-.255.585-.552.768-.891a1.8 1.8 0 0 0 .246-1.054c-.016-.383-.171-.765-.466-1.146-.278-.36-.601-.597-.967-.708a1.932 1.932 0 0 0-1.095-.043 2.803 2.803 0 0 0-1.055.519Zm-8.171 18.043 1.189-.92c.845-.653 1.761-1.065 2.748-1.235.996-.161 1.991-.033 2.987.382 1.003.426 1.931 1.19 2.783 2.292.876 1.133 1.386 2.229 1.529 3.287.151 1.068.015 2.053-.406 2.955-.414.912-1.043 1.695-1.888 2.348l-1.19.92c-.845.653-1.761 1.065-2.748 1.235-.979.181-1.963.069-2.951-.336-.987-.405-1.915-1.169-2.783-2.291-.86-1.113-1.37-2.209-1.529-3.287-.159-1.079-.035-2.079.371-3.002.414-.912 1.043-1.695 1.888-2.348Zm3.782 2.433-1.19.92c-.32.247-.559.555-.717.925a2.475 2.475 0 0 0-.203 1.144c.035.384.171.732.41 1.041.366.473.72.76 1.06.859.358.102.704.081 1.038-.062.342-.132.672-.322.992-.569l1.19-.92c.319-.247.57-.539.753-.878.182-.339.26-.695.234-1.07-.016-.383-.167-.759-.454-1.13-.287-.371-.613-.612-.979-.724a1.932 1.932 0 0 0-1.095-.043c-.374.091-.72.261-1.039.507Zm16.046-7.664-26.078 2.607-.655-3.37 26.078-2.606.655 3.369Z" fill="#fff"/><defs><filter id="filter0_i_2003_3109" x="423.079" y="111.561" width="230.965" height="268.181" filterUnits="userSpaceOnUse" color-interpolation-filters="sRGB"><feFlood flood-opacity="0" result="BackgroundImageFix"/><feBlend in="SourceGraphic" in2="BackgroundImageFix" result="shape"/><feColorMatrix in="SourceAlpha" values="0 0 0 0 0 0 0 0 0 0 0 0 0 0 0 0 0 0 127 0" result="hardAlpha"/><feOffset/><feGaussianBlur stdDeviation="8.5"/><feComposite in2="hardAlpha" operator="arithmetic" k2="-1" k3="1"/><feColorMatrix values="0 0 0 0 0 0 0 0 0 0 0 0 0 0 0 0 0 0 0.3 0"/><feBlend in2="shape" result="effect1_innerShadow_2003_3109"/></filter><filter id="filter1_i_2003_3109" x="134.413" y="112.085" width="235.984" height="269.774" filterUnits="userSpaceOnUse" color-interpolation-filters="sRGB"><feFlood flood-opacity="0" result="BackgroundImageFix"/><feBlend in="SourceGraphic" in2="BackgroundImageFix" result="shape"/><feColorMatrix in="SourceAlpha" values="0 0 0 0 0 0 0 0 0 0 0 0 0 0 0 0 0 0 127 0" result="hardAlpha"/><feOffset/><feGaussianBlur stdDeviation="8.5"/><feComposite in2="hardAlpha" operator="arithmetic" k2="-1" k3="1"/><feColorMatrix values="0 0 0 0 0 0 0 0 0 0 0 0 0 0 0 0 0 0 0.3 0"/><feBlend in2="shape" result="effect1_innerShadow_2003_3109"/></filter><filter id="filter2_i_2003_3109" x="443.038" y="425.496" width="285.124" height="169.003" filterUnits="userSpaceOnUse" color-interpolation-filters="sRGB"><feFlood flood-opacity="0" result="BackgroundImageFix"/><feBlend in="SourceGraphic" in2="BackgroundImageFix" result="shape"/><feColorMatrix in="SourceAlpha" values="0 0 0 0 0 0 0 0 0 0 0 0 0 0 0 0 0 0 127 0" result="hardAlpha"/><feOffset/><feGaussianBlur stdDeviation="8.5"/><feComposite in2="hardAlpha" operator="arithmetic" k2="-1" k3="1"/><feColorMatrix values="0 0 0 0 0 0 0 0 0 0 0 0 0 0 0 0 0 0 0.3 0"/><feBlend in2="shape" result="effect1_innerShadow_2003_3109"/></filter><filter id="filter3_i_2003_3109" x="293.791" y="463.77" width="202.288" height="285.015" filterUnits="userSpaceOnUse" color-interpolation-filters="sRGB"><feFlood flood-opacity="0" result="BackgroundImageFix"/><feBlend in="SourceGraphic" in2="BackgroundImageFix" result="shape"/><feColorMatrix in="SourceAlpha" values="0 0 0 0 0 0 0 0 0 0 0 0 0 0 0 0 0 0 127 0" result="hardAlpha"/><feOffset/><feGaussianBlur stdDeviation="8.5"/><feComposite in2="hardAlpha" operator="arithmetic" k2="-1" k3="1"/><feColorMatrix values="0 0 0 0 0 0 0 0 0 0 0 0 0 0 0 0 0 0 0.3 0"/><feBlend in2="shape" result="effect1_innerShadow_2003_3109"/></filter><filter id="filter4_i_2003_3109" x="65.245" y="425.512" width="287.343" height="182.61" filterUnits="userSpaceOnUse" color-interpolation-filters="sRGB"><feFlood flood-opacity="0" result="BackgroundImageFix"/><feBlend in="SourceGraphic" in2="BackgroundImageFix" result="shape"/><feColorMatrix in="SourceAlpha" values="0 0 0 0 0 0 0 0 0 0 0 0 0 0 0 0 0 0 127 0" result="hardAlpha"/><feOffset/><feGaussianBlur stdDeviation="8.5"/><feComposite in2="hardAlpha" operator="arithmetic" k2="-1" k3="1"/><feColorMatrix values="0 0 0 0 0 0 0 0 0 0 0 0 0 0 0 0 0 0 0.3 0"/><feBlend in2="shape" result="effect1_innerShadow_2003_3109"/></filter><filter id="filter5_i_2003_3109" x="295.696" y="83.999" width="204.556" height="278.902" filterUnits="userSpaceOnUse" color-interpolation-filters="sRGB"><feFlood flood-opacity="0" result="BackgroundImageFix"/><feBlend in="SourceGraphic" in2="BackgroundImageFix" result="shape"/><feColorMatrix in="SourceAlpha" values="0 0 0 0 0 0 0 0 0 0 0 0 0 0 0 0 0 0 127 0" result="hardAlpha"/><feOffset/><feGaussianBlur stdDeviation="8.5"/><feComposite in2="hardAlpha" operator="arithmetic" k2="-1" k3="1"/><feColorMatrix values="0 0 0 0 0 0 0 0 0 0 0 0 0 0 0 0 0 0 0.3 0"/><feBlend in2="shape" result="effect1_innerShadow_2003_3109"/></filter><filter id="filter6_i_2003_3109" x="447.609" y="230.487" width="280.1" height="181.295" filterUnits="userSpaceOnUse" color-interpolation-filters="sRGB"><feFlood flood-opacity="0" result="BackgroundImageFix"/><feBlend in="SourceGraphic" in2="BackgroundImageFix" result="shape"/><feColorMatrix in="SourceAlpha" values="0 0 0 0 0 0 0 0 0 0 0 0 0 0 0 0 0 0 127 0" result="hardAlpha"/><feOffset/><feGaussianBlur stdDeviation="8.5"/><feComposite in2="hardAlpha" operator="arithmetic" k2="-1" k3="1"/><feColorMatrix values="0 0 0 0 0 0 0 0 0 0 0 0 0 0 0 0 0 0 0.3 0"/><feBlend in2="shape" result="effect1_innerShadow_2003_3109"/></filter><filter id="filter7_i_2003_3109" x="65.555" y="242.147" width="280.018" height="169.829" filterUnits="userSpaceOnUse" color-interpolation-filters="sRGB"><feFlood flood-opacity="0" result="BackgroundImageFix"/><feBlend in="SourceGraphic" in2="BackgroundImageFix" result="shape"/><feColorMatrix in="SourceAlpha" values="0 0 0 0 0 0 0 0 0 0 0 0 0 0 0 0 0 0 127 0" result="hardAlpha"/><feOffset/><feGaussianBlur stdDeviation="8.5"/><feComposite in2="hardAlpha" operator="arithmetic" k2="-1" k3="1"/><feColorMatrix values="0 0 0 0 0 0 0 0 0 0 0 0 0 0 0 0 0 0 0.3 0"/><feBlend in2="shape" result="effect1_innerShadow_2003_3109"/></filter><filter id="filter8_i_2003_3109" x="426.434" y="463.225" width="227.624" height="259.624" filterUnits="userSpaceOnUse" color-interpolation-filters="sRGB"><feFlood flood-opacity="0" result="BackgroundImageFix"/><feBlend in="SourceGraphic" in2="BackgroundImageFix" result="shape"/><feColorMatrix in="SourceAlpha" values="0 0 0 0 0 0 0 0 0 0 0 0 0 0 0 0 0 0 127 0" result="hardAlpha"/><feOffset/><feGaussianBlur stdDeviation="8.5"/><feComposite in2="hardAlpha" operator="arithmetic" k2="-1" k3="1"/><feColorMatrix values="0 0 0 0 0 0 0 0 0 0 0 0 0 0 0 0 0 0 0.3 0"/><feBlend in2="shape" result="effect1_innerShadow_2003_3109"/></filter><filter id="filter9_i_2003_3109" x="142.63" y="461.701" width="219.973" height="258.385" filterUnits="userSpaceOnUse" color-interpolation-filters="sRGB"><feFlood flood-opacity="0" result="BackgroundImageFix"/><feBlend in="SourceGraphic" in2="BackgroundImageFix" result="shape"/><feColorMatrix in="SourceAlpha" values="0 0 0 0 0 0 0 0 0 0 0 0 0 0 0 0 0 0 127 0" result="hardAlpha"/><feOffset/><feGaussianBlur stdDeviation="8.5"/><feComposite in2="hardAlpha" operator="arithmetic" k2="-1" k3="1"/><feColorMatrix values="0 0 0 0 0 0 0 0 0 0 0 0 0 0 0 0 0 0 0.3 0"/><feBlend in2="shape" result="effect1_innerShadow_2003_3109"/></filter><linearGradient id="paint0_linear_2003_3109" x1="541.97" y1="236.952" x2="370.44" y2="431.705" gradientUnits="userSpaceOnUse"><stop stop-color="#4C5485"/><stop offset="1" stop-color="#161824"/></linearGradient><linearGradient id="paint1_linear_2003_3109" x1="251.173" y1="237.147" x2="422.702" y2="431.901" gradientUnits="userSpaceOnUse"><stop stop-color="#4C5485"/><stop offset="1" stop-color="#161824"/></linearGradient><linearGradient id="paint2_linear_2003_3109" x1="614.29" y1="497.327" x2="374.548" y2="397.953" gradientUnits="userSpaceOnUse"><stop stop-color="#4C5485"/><stop offset="1" stop-color="#161824"/></linearGradient><linearGradient id="paint3_linear_2003_3109" x1="396.125" y1="648.249" x2="411.559" y2="389.187" gradientUnits="userSpaceOnUse"><stop stop-color="#4C5485"/><stop offset="1" stop-color="#161824"/></linearGradient><linearGradient id="paint4_linear_2003_3109" x1="177.173" y1="487.925" x2="427.94" y2="421.086" gradientUnits="userSpaceOnUse"><stop stop-color="#4C5485"/><stop offset="1" stop-color="#161824"/></linearGradient></defs></svg>